<svg width="193" height="56" viewBox="0 0 193 56" fill="none" xmlns="http://www.w3.org/2000/svg">
<path d="M27.2963 43.963V22.1481L36.4444 13L45.5926 22.1481L47 23.5556" stroke="#393AA5" stroke-width="10"/>
<path d="M9 43.963V22.1481L18.1481 13L27.2963 22.1481V43.963" stroke="#4C4DDC" stroke-width="10"/>
<path d="M69.5 36.17C69.0933 36.17 68.6467 36.1567 68.16 36.13C67.68 36.11 67.1933 36.0767 66.7 36.03C66.2133 35.99 65.7567 35.94 65.33 35.88V21.53C65.79 21.43 66.2833 21.3433 66.81 21.27C67.3367 21.19 67.8767 21.13 68.43 21.09C68.99 21.0433 69.54 21.02 70.08 21.02C71.5467 21.02 72.7433 21.1733 73.67 21.48C74.6033 21.78 75.29 22.2367 75.73 22.85C76.17 23.4567 76.39 24.22 76.39 25.14C76.39 25.6867 76.2833 26.19 76.07 26.65C75.8633 27.1033 75.56 27.4867 75.16 27.8C74.76 28.1133 74.2733 28.3267 73.7 28.44L73.71 28.31C74.65 28.4433 75.3967 28.8067 75.95 29.4C76.51 29.9867 76.79 30.8033 76.79 31.85C76.79 32.5367 76.66 33.15 76.4 33.69C76.14 34.2233 75.7233 34.6767 75.15 35.05C74.5767 35.4167 73.8233 35.6967 72.89 35.89C71.9633 36.0767 70.8333 36.17 69.5 36.17ZM70.37 33.8C71.2367 33.8 71.9167 33.7233 72.41 33.57C72.91 33.4167 73.2633 33.1867 73.47 32.88C73.6833 32.5733 73.79 32.1833 73.79 31.71C73.79 30.9967 73.5667 30.4767 73.12 30.15C72.68 29.8167 71.9533 29.65 70.94 29.65H68.16V27.22H70.63C71.29 27.22 71.8167 27.15 72.21 27.01C72.61 26.8633 72.8967 26.65 73.07 26.37C73.25 26.09 73.34 25.7367 73.34 25.31C73.34 24.6367 73.1267 24.15 72.7 23.85C72.2733 23.5433 71.5367 23.39 70.49 23.39C70.11 23.39 69.76 23.4067 69.44 23.44C69.12 23.4667 68.8067 23.5067 68.5 23.56V33.71C68.84 33.7433 69.1567 33.7667 69.45 33.78C69.7433 33.7933 70.05 33.8 70.37 33.8ZM78.6503 36V21.2H81.9003V33.3H88.7003V36H78.6503ZM95.9827 36.19C94.5427 36.19 93.3627 35.96 92.4427 35.5C91.5227 35.04 90.8427 34.3433 90.4027 33.41C89.9627 32.47 89.7427 31.29 89.7427 29.87V21.2H92.9827V30.19C92.9827 31.3633 93.2327 32.2133 93.7327 32.74C94.2327 33.2667 94.9827 33.53 95.9827 33.53C96.9827 33.53 97.7293 33.2667 98.2227 32.74C98.7227 32.2133 98.9727 31.3633 98.9727 30.19V21.2H102.153V29.87C102.153 31.29 101.936 32.47 101.503 33.41C101.069 34.3433 100.396 35.04 99.4827 35.5C98.5693 35.96 97.4027 36.19 95.9827 36.19ZM104.784 36V21.2H108.734L113.054 30.98H112.664L116.864 21.2H120.814V36H117.784V24.04H118.424L114.134 33.86H111.464L107.034 24.04H107.814V36H104.784Z" fill="#4C4DDC"/>
<path d="M123.514 36V21.2H126.764V27H132.864V21.2H136.114V36H132.864V29.86H126.764V36H123.514ZM145.248 36.19C143.841 36.19 142.614 35.9167 141.568 35.37C140.528 34.8233 139.718 33.99 139.138 32.87C138.564 31.7433 138.278 30.32 138.278 28.6C138.278 26.88 138.564 25.46 139.138 24.34C139.718 23.2133 140.528 22.3767 141.568 21.83C142.614 21.2833 143.841 21.01 145.248 21.01C146.654 21.01 147.878 21.2867 148.918 21.84C149.964 22.3867 150.774 23.2233 151.348 24.35C151.928 25.47 152.218 26.8867 152.218 28.6C152.218 30.3133 151.928 31.7333 151.348 32.86C150.774 33.98 149.964 34.8167 148.918 35.37C147.871 35.9167 146.648 36.19 145.248 36.19ZM145.248 33.57C146.008 33.57 146.658 33.4067 147.198 33.08C147.744 32.7467 148.161 32.22 148.448 31.5C148.741 30.78 148.888 29.8367 148.888 28.67C148.888 27.4567 148.741 26.4833 148.448 25.75C148.154 25.01 147.734 24.4733 147.188 24.14C146.648 23.8 146.001 23.63 145.248 23.63C144.494 23.63 143.844 23.7933 143.298 24.12C142.758 24.4467 142.341 24.97 142.048 25.69C141.754 26.41 141.608 27.3567 141.608 28.53C141.608 29.75 141.751 30.73 142.038 31.47C142.331 32.2033 142.748 32.7367 143.288 33.07C143.834 33.4033 144.488 33.57 145.248 33.57ZM160.573 36.19C159.133 36.19 157.953 35.96 157.033 35.5C156.113 35.04 155.433 34.3433 154.993 33.41C154.553 32.47 154.333 31.29 154.333 29.87V21.2H157.573V30.19C157.573 31.3633 157.823 32.2133 158.323 32.74C158.823 33.2667 159.573 33.53 160.573 33.53C161.573 33.53 162.319 33.2667 162.813 32.74C163.313 32.2133 163.563 31.3633 163.563 30.19V21.2H166.743V29.87C166.743 31.29 166.526 32.47 166.093 33.41C165.659 34.3433 164.986 35.04 164.073 35.5C163.159 35.96 161.993 36.19 160.573 36.19ZM173.034 36.19C172.321 36.19 171.604 36.1333 170.884 36.02C170.171 35.9133 169.511 35.76 168.904 35.56V32.92C169.324 33.06 169.771 33.18 170.244 33.28C170.717 33.3733 171.191 33.4467 171.664 33.5C172.144 33.5533 172.597 33.58 173.024 33.58C174.017 33.58 174.721 33.43 175.134 33.13C175.547 32.8233 175.754 32.3967 175.754 31.85C175.754 31.39 175.601 31.03 175.294 30.77C174.994 30.51 174.431 30.2733 173.604 30.06L172.484 29.77C171.191 29.4433 170.211 28.9367 169.544 28.25C168.884 27.5567 168.554 26.6433 168.554 25.51C168.554 24.0967 169.064 22.9933 170.084 22.2C171.111 21.4067 172.654 21.01 174.714 21.01C175.381 21.01 176.014 21.05 176.614 21.13C177.221 21.2033 177.757 21.3067 178.224 21.44V24.08C177.751 23.9333 177.224 23.82 176.644 23.74C176.064 23.66 175.481 23.62 174.894 23.62C174.121 23.62 173.507 23.6933 173.054 23.84C172.601 23.98 172.274 24.18 172.074 24.44C171.881 24.7 171.784 25 171.784 25.34C171.784 25.7733 171.917 26.1133 172.184 26.36C172.451 26.6067 172.951 26.83 173.684 27.03L174.794 27.32C175.754 27.5533 176.544 27.8633 177.164 28.25C177.784 28.63 178.241 29.1 178.534 29.66C178.834 30.2133 178.984 30.87 178.984 31.63C178.984 32.5767 178.747 33.3933 178.274 34.08C177.807 34.76 177.131 35.2833 176.244 35.65C175.357 36.01 174.287 36.19 173.034 36.19ZM180.857 36V21.2H191.247V23.8H184.067V33.4H191.347V36H180.857ZM182.787 29.73V27.13H190.227V29.73H182.787Z" fill="#393AA5"/>
</svg>
