<svg width="40" height="40" viewBox="0 0 40 40" fill="none" xmlns="http://www.w3.org/2000/svg">
  <rect width="40" height="40" rx="20" fill="#4C4DDC"/>
  <path d="M20.66 10.5181L20.63 10.5881L17.73 17.3181H14.88C14.2 17.3181 13.55 17.4581 12.96 17.7081L14.71 13.5281L14.75 13.4281L14.82 13.2681C14.84 13.2081 14.86 13.1481 14.89 13.0981C16.2 10.0681 17.68 9.37814 20.66 10.5181Z" fill="white" stroke="#4C4DDC" stroke-width="1.5" stroke-linecap="round" stroke-linejoin="round"/>
  <path d="M26.05 17.5181C25.6 17.3781 25.12 17.3181 24.64 17.3181H17.73L20.63 10.5881L20.66 10.5181C20.81 10.5681 20.95 10.6381 21.1 10.6981L23.31 11.6281C24.54 12.1381 25.4 12.6681 25.92 13.3081C26.02 13.4281 26.1 13.5381 26.17 13.6681C26.26 13.8081 26.33 13.9481 26.37 14.0981C26.41 14.1881 26.44 14.2781 26.46 14.3581C26.73 15.1981 26.57 16.2281 26.05 17.5181Z" fill="white" stroke="#4C4DDC" stroke-width="1.5" stroke-linecap="round" stroke-linejoin="round"/>
  <path d="M29.5217 22.1984V24.1484C29.5217 24.3484 29.5117 24.5484 29.5017 24.7484C29.3117 28.2384 27.3617 29.9984 23.6617 29.9984H15.8617C15.6217 29.9984 15.3817 29.9784 15.1517 29.9484C11.9717 29.7384 10.2717 28.0384 10.0617 24.8584C10.0317 24.6284 10.0117 24.3884 10.0117 24.1484V22.1984C10.0117 20.1884 11.2317 18.4584 12.9717 17.7084C13.5717 17.4584 14.2117 17.3184 14.8917 17.3184H24.6517C25.1417 17.3184 25.6217 17.3884 26.0617 17.5184C28.0517 18.1284 29.5217 19.9884 29.5217 22.1984Z" fill="white" stroke="#4C4DDC" stroke-width="1.5" stroke-linecap="round" stroke-linejoin="round"/>
  <path d="M14.71 13.5281L12.96 17.7081C11.22 18.4581 10 20.1881 10 22.1981V19.2681C10 16.4281 12.02 14.0581 14.71 13.5281Z" fill="white" stroke="#4C4DDC" stroke-width="1.5" stroke-linecap="round" stroke-linejoin="round"/>
  <path d="M29.5186 19.2677V22.1977C29.5186 19.9977 28.0586 18.1277 26.0586 17.5277C26.5786 16.2277 26.7286 15.2077 26.4786 14.3577C26.4586 14.2677 26.4286 14.1777 26.3886 14.0977C28.2486 15.0577 29.5186 17.0277 29.5186 19.2677Z" fill="white" stroke="#4C4DDC" stroke-width="1.5" stroke-linecap="round" stroke-linejoin="round"/>
</svg>
