<svg width="277" height="56" viewBox="0 0 277 56" fill="none" xmlns="http://www.w3.org/2000/svg">
<path d="M27.2963 43.963V22.1481L36.4445 13L45.5926 22.1481L47 23.5556" stroke="white" stroke-width="10"/>
<path d="M9 43.963V22.1481L18.1481 13L27.2963 22.1481V43.963" stroke="white" stroke-width="10"/>
<path d="M80.8 41.272C80.1493 41.272 79.4347 41.2507 78.656 41.208C77.888 41.176 77.1093 41.1227 76.32 41.048C75.5413 40.984 74.8107 40.904 74.128 40.808V17.848C74.864 17.688 75.6533 17.5493 76.496 17.432C77.3387 17.304 78.2027 17.208 79.088 17.144C79.984 17.0693 80.864 17.032 81.728 17.032C84.0747 17.032 85.9893 17.2773 87.472 17.768C88.9653 18.248 90.064 18.9787 90.768 19.96C91.472 20.9307 91.824 22.152 91.824 23.624C91.824 24.4987 91.6533 25.304 91.312 26.04C90.9813 26.7653 90.496 27.3787 89.856 27.88C89.216 28.3813 88.4373 28.7227 87.52 28.904L87.536 28.696C89.04 28.9093 90.2347 29.4907 91.12 30.44C92.016 31.3787 92.464 32.6853 92.464 34.36C92.464 35.4587 92.256 36.44 91.84 37.304C91.424 38.1573 90.7573 38.8827 89.84 39.48C88.9227 40.0667 87.7173 40.5147 86.224 40.824C84.7413 41.1227 82.9333 41.272 80.8 41.272ZM82.192 37.48C83.5787 37.48 84.6667 37.3573 85.456 37.112C86.256 36.8667 86.8213 36.4987 87.152 36.008C87.4933 35.5173 87.664 34.8933 87.664 34.136C87.664 32.9947 87.3067 32.1627 86.592 31.64C85.888 31.1067 84.7253 30.84 83.104 30.84H78.656V26.952H82.608C83.664 26.952 84.5067 26.84 85.136 26.616C85.776 26.3813 86.2347 26.04 86.512 25.592C86.8 25.144 86.944 24.5787 86.944 23.896C86.944 22.8187 86.6027 22.04 85.92 21.56C85.2373 21.0693 84.0587 20.824 82.384 20.824C81.776 20.824 81.216 20.8507 80.704 20.904C80.192 20.9467 79.6907 21.0107 79.2 21.096V37.336C79.744 37.3893 80.2507 37.4267 80.72 37.448C81.1893 37.4693 81.68 37.48 82.192 37.48ZM95.4405 41V17.32H100.641V36.68H111.521V41H95.4405ZM123.172 41.304C120.868 41.304 118.98 40.936 117.508 40.2C116.036 39.464 114.948 38.3493 114.244 36.856C113.54 35.352 113.188 33.464 113.188 31.192V17.32H118.372V31.704C118.372 33.5813 118.772 34.9413 119.572 35.784C120.372 36.6267 121.572 37.048 123.172 37.048C124.772 37.048 125.967 36.6267 126.756 35.784C127.556 34.9413 127.956 33.5813 127.956 31.704V17.32H133.044V31.192C133.044 33.464 132.698 35.352 132.004 36.856C131.311 38.3493 130.234 39.464 128.772 40.2C127.311 40.936 125.444 41.304 123.172 41.304ZM137.255 41V17.32H143.575L150.487 32.968H149.863L156.583 17.32H162.903V41H158.055V21.864H159.079L152.215 37.576H147.943L140.855 21.864H142.103V41H137.255ZM167.222 41V17.32H172.422V26.6H182.182V17.32H187.382V41H182.182V31.176H172.422V41H167.222ZM201.996 41.304C199.745 41.304 197.783 40.8667 196.108 39.992C194.444 39.1173 193.148 37.784 192.22 35.992C191.303 34.1893 190.844 31.912 190.844 29.16C190.844 26.408 191.303 24.136 192.22 22.344C193.148 20.5413 194.444 19.2027 196.108 18.328C197.783 17.4533 199.745 17.016 201.996 17.016C204.247 17.016 206.204 17.4587 207.868 18.344C209.543 19.2187 210.839 20.5573 211.756 22.36C212.684 24.152 213.148 26.4187 213.148 29.16C213.148 31.9013 212.684 34.1733 211.756 35.976C210.839 37.768 209.543 39.1067 207.868 39.992C206.193 40.8667 204.236 41.304 201.996 41.304ZM201.996 37.112C203.212 37.112 204.252 36.8507 205.116 36.328C205.991 35.7947 206.657 34.952 207.116 33.8C207.585 32.648 207.82 31.1387 207.82 29.272C207.82 27.3307 207.585 25.7733 207.116 24.6C206.647 23.416 205.975 22.5573 205.1 22.024C204.236 21.48 203.201 21.208 201.996 21.208C200.791 21.208 199.751 21.4693 198.876 21.992C198.012 22.5147 197.345 23.352 196.876 24.504C196.407 25.656 196.172 27.1707 196.172 29.048C196.172 31 196.401 32.568 196.86 33.752C197.329 34.9253 197.996 35.7787 198.86 36.312C199.735 36.8453 200.78 37.112 201.996 37.112ZM226.516 41.304C224.212 41.304 222.324 40.936 220.852 40.2C219.38 39.464 218.292 38.3493 217.588 36.856C216.884 35.352 216.532 33.464 216.532 31.192V17.32H221.716V31.704C221.716 33.5813 222.116 34.9413 222.916 35.784C223.716 36.6267 224.916 37.048 226.516 37.048C228.116 37.048 229.311 36.6267 230.1 35.784C230.9 34.9413 231.3 33.5813 231.3 31.704V17.32H236.388V31.192C236.388 33.464 236.041 35.352 235.348 36.856C234.655 38.3493 233.577 39.464 232.116 40.2C230.655 40.936 228.788 41.304 226.516 41.304ZM246.454 41.304C245.313 41.304 244.166 41.2133 243.014 41.032C241.873 40.8613 240.817 40.616 239.846 40.296V36.072C240.518 36.296 241.233 36.488 241.99 36.648C242.748 36.7973 243.505 36.9147 244.262 37C245.03 37.0853 245.756 37.128 246.438 37.128C248.028 37.128 249.153 36.888 249.814 36.408C250.476 35.9173 250.806 35.2347 250.806 34.36C250.806 33.624 250.561 33.048 250.07 32.632C249.59 32.216 248.689 31.8373 247.366 31.496L245.574 31.032C243.505 30.5093 241.937 29.6987 240.87 28.6C239.814 27.4907 239.286 26.0293 239.286 24.216C239.286 21.9547 240.102 20.1893 241.734 18.92C243.377 17.6507 245.846 17.016 249.142 17.016C250.209 17.016 251.222 17.08 252.182 17.208C253.153 17.3253 254.012 17.4907 254.758 17.704V21.928C254.001 21.6933 253.158 21.512 252.23 21.384C251.302 21.256 250.369 21.192 249.43 21.192C248.193 21.192 247.212 21.3093 246.486 21.544C245.761 21.768 245.238 22.088 244.918 22.504C244.609 22.92 244.454 23.4 244.454 23.944C244.454 24.6373 244.668 25.1813 245.094 25.576C245.521 25.9707 246.321 26.328 247.494 26.648L249.27 27.112C250.806 27.4853 252.07 27.9813 253.062 28.6C254.054 29.208 254.785 29.96 255.254 30.856C255.734 31.7413 255.974 32.792 255.974 34.008C255.974 35.5227 255.596 36.8293 254.838 37.928C254.092 39.016 253.009 39.8533 251.59 40.44C250.172 41.016 248.46 41.304 246.454 41.304ZM258.972 41V17.32H275.596V21.48H264.108V36.84H275.756V41H258.972ZM262.06 30.968V26.808H273.964V30.968H262.06Z" fill="white"/>
</svg>
