<svg width="109" height="108" viewBox="0 0 109 108" fill="none" xmlns="http://www.w3.org/2000/svg">
<path d="M48.2611 16.3865C51.1431 10.2607 59.8569 10.2607 62.7389 16.3865L63.0963 17.1463C64.9682 21.1249 69.7001 22.8472 73.6914 21.0025L74.4536 20.6503C80.5989 17.8102 87.274 23.4113 85.5442 29.9564L85.3297 30.7682C84.2062 35.0192 86.7239 39.3801 90.9672 40.5327L91.7775 40.7528C98.3106 42.5272 99.8238 51.1086 94.2915 55.0106L93.6053 55.4945C90.0122 58.0288 89.1378 62.9879 91.6475 66.5982L92.1267 67.2877C95.9908 72.8465 91.6339 80.3928 84.8879 79.8258L84.0511 79.7555C79.6696 79.3872 75.8121 82.624 75.414 87.0029L75.3379 87.8392C74.7249 94.5812 66.5366 97.5615 61.7333 92.7909L61.1375 92.1991C58.0178 89.1007 52.9822 89.1007 49.8625 92.1991L49.2667 92.7909C44.4634 97.5615 36.2751 94.5812 35.6621 87.8392L35.586 87.0029C35.1879 82.624 31.3304 79.3872 26.9489 79.7555L26.1121 79.8258C19.3661 80.3928 15.0092 72.8465 18.8733 67.2877L19.3525 66.5982C21.8622 62.9879 20.9878 58.0288 17.3946 55.4945L16.7085 55.0106C11.1762 51.1086 12.6894 42.5272 19.2225 40.7528L20.0328 40.5327C24.2761 39.3801 26.7938 35.0192 25.6703 30.7682L25.4558 29.9564C23.726 23.4113 30.4011 17.8102 36.5464 20.6503L37.3086 21.0025C41.2999 22.8472 46.0318 21.1249 47.9037 17.1463L48.2611 16.3865Z" fill="#393AA5"/>
<path d="M46.2611 15.3865C49.1431 9.2607 57.8569 9.2607 60.7389 15.3865L61.0963 16.1463C62.9682 20.1249 67.7001 21.8472 71.6914 20.0025L72.4536 19.6503C78.5989 16.8102 85.274 22.4113 83.5442 28.9564L83.3297 29.7682C82.2062 34.0192 84.7239 38.3801 88.9672 39.5327L89.7775 39.7528C96.3106 41.5272 97.8238 50.1086 92.2915 54.0106L91.6053 54.4945C88.0122 57.0288 87.1378 61.9879 89.6475 65.5982L90.1267 66.2877C93.9908 71.8465 89.6339 79.3928 82.8879 78.8258L82.0511 78.7555C77.6696 78.3872 73.8121 81.624 73.414 86.0029L73.3379 86.8392C72.7249 93.5812 64.5366 96.5615 59.7333 91.7909L59.1375 91.1991C56.0178 88.1007 50.9822 88.1007 47.8625 91.1991L47.2667 91.7909C42.4634 96.5615 34.2751 93.5812 33.6621 86.8392L33.586 86.0029C33.1879 81.624 29.3304 78.3872 24.9489 78.7555L24.1121 78.8258C17.3661 79.3928 13.0092 71.8465 16.8733 66.2877L17.3525 65.5982C19.8622 61.9879 18.9878 57.0288 15.3946 54.4945L14.7085 54.0106C9.17622 50.1086 10.6894 41.5272 17.2225 39.7528L18.0328 39.5327C22.2761 38.3801 24.7938 34.0192 23.6703 29.7682L23.4558 28.9564C21.726 22.4113 28.4011 16.8102 34.5464 19.6503L35.3086 20.0025C39.2999 21.8472 44.0318 20.1249 45.9037 16.1463L46.2611 15.3865Z" fill="#4C4DDC"/>
<mask id="path-3-outside-1_337_1922" maskUnits="userSpaceOnUse" x="32" y="43" width="41" height="23" fill="black">
<rect fill="white" x="32" y="43" width="41" height="23"/>
<path d="M32.7315 52V44.0415C32.9772 43.9865 33.2393 43.9388 33.518 43.8985C33.7967 43.8545 34.0845 43.8215 34.3815 43.7995C34.6785 43.7738 34.9773 43.761 35.278 43.761C36.4477 43.761 37.3277 43.9737 37.918 44.399C38.5083 44.8207 38.8035 45.4807 38.8035 46.379C38.8035 46.9583 38.6642 47.4442 38.3855 47.8365C38.1068 48.2252 37.709 48.5185 37.192 48.7165C36.6787 48.9145 36.0645 49.0135 35.3495 49.0135C35.1882 49.0135 35.0397 49.0117 34.904 49.008C34.7683 49.0007 34.629 48.9933 34.486 48.986V52H32.7315ZM37.522 52L34.904 48.238H36.818L39.4745 52H37.522ZM35.3825 47.6825C35.9728 47.6825 36.411 47.5798 36.697 47.3745C36.983 47.1692 37.126 46.8373 37.126 46.379C37.126 46.0783 37.0655 45.8327 36.9445 45.642C36.8235 45.4477 36.6402 45.3047 36.3945 45.213C36.1488 45.1213 35.8372 45.0755 35.4595 45.0755C35.2725 45.0755 35.1002 45.0828 34.9425 45.0975C34.7848 45.1122 34.6327 45.1342 34.486 45.1635V47.6385C34.5923 47.6458 34.6913 47.655 34.783 47.666C34.8783 47.6733 34.9737 47.6788 35.069 47.6825C35.168 47.6825 35.2725 47.6825 35.3825 47.6825ZM40.3155 52V43.86H46.03V45.29H42.081V50.57H46.085V52H40.3155ZM41.377 48.5515V47.1215H45.469V48.5515H41.377ZM46.3641 52L48.9931 43.86H51.5946L54.2236 52H52.4636L50.1866 44.641H50.3736L48.1021 52H46.3641ZM48.1901 49.8275L48.5751 48.403H52.0071L52.3866 49.8275H48.1901ZM55.0323 52V43.86H56.8198V50.515H60.5598V52H55.0323ZM32.7315 65V56.86H38.446V58.29H34.497V63.57H38.501V65H32.7315ZM33.793 61.5515V60.1215H37.885V61.5515H33.793ZM41.663 65.1045C41.2707 65.1045 40.8765 65.0733 40.4805 65.011C40.0882 64.9523 39.7252 64.868 39.3915 64.758V63.306C39.6225 63.383 39.8682 63.449 40.1285 63.504C40.3888 63.5553 40.6492 63.5957 40.9095 63.625C41.1735 63.6543 41.4228 63.669 41.6575 63.669C42.2038 63.669 42.5907 63.5865 42.818 63.4215C43.0453 63.2528 43.159 63.0182 43.159 62.7175C43.159 62.4645 43.0747 62.2665 42.906 62.1235C42.741 61.9805 42.4312 61.8503 41.9765 61.733L41.3605 61.5735C40.6492 61.3938 40.1102 61.1152 39.7435 60.7375C39.3805 60.3562 39.199 59.8538 39.199 59.2305C39.199 58.4532 39.4795 57.8463 40.0405 57.41C40.6052 56.9737 41.454 56.7555 42.587 56.7555C42.9537 56.7555 43.302 56.7775 43.632 56.8215C43.9657 56.8618 44.2608 56.9187 44.5175 56.992V58.444C44.2572 58.3633 43.9675 58.301 43.6485 58.257C43.3295 58.213 43.0087 58.191 42.686 58.191C42.2607 58.191 41.9233 58.2313 41.674 58.312C41.4247 58.389 41.245 58.499 41.135 58.642C41.0287 58.785 40.9755 58.95 40.9755 59.137C40.9755 59.3753 41.0488 59.5623 41.1955 59.698C41.3422 59.8337 41.6172 59.9565 42.0205 60.0665L42.631 60.226C43.159 60.3543 43.5935 60.5248 43.9345 60.7375C44.2755 60.9465 44.5267 61.205 44.688 61.513C44.853 61.8173 44.9355 62.1785 44.9355 62.5965C44.9355 63.1172 44.8053 63.5663 44.545 63.944C44.2883 64.318 43.9162 64.6058 43.4285 64.8075C42.9408 65.0055 42.3523 65.1045 41.663 65.1045ZM47.5199 65V58.345H44.9514V56.86H51.8759V58.345H49.3129V65H47.5199ZM51.0799 65L53.7089 56.86H56.3104L58.9394 65H57.1794L54.9024 57.641H55.0894L52.8179 65H51.0799ZM52.9059 62.8275L53.2909 61.403H56.7229L57.1024 62.8275H52.9059ZM60.7113 65V58.345H58.1428V56.86H65.0673V58.345H62.5043V65H60.7113ZM65.8711 65V56.86H71.5856V58.29H67.6366V63.57H71.6406V65H65.8711ZM66.9326 61.5515V60.1215H71.0246V61.5515H66.9326Z"/>
</mask>
<path d="M32.7315 52V44.0415C32.9772 43.9865 33.2393 43.9388 33.518 43.8985C33.7967 43.8545 34.0845 43.8215 34.3815 43.7995C34.6785 43.7738 34.9773 43.761 35.278 43.761C36.4477 43.761 37.3277 43.9737 37.918 44.399C38.5083 44.8207 38.8035 45.4807 38.8035 46.379C38.8035 46.9583 38.6642 47.4442 38.3855 47.8365C38.1068 48.2252 37.709 48.5185 37.192 48.7165C36.6787 48.9145 36.0645 49.0135 35.3495 49.0135C35.1882 49.0135 35.0397 49.0117 34.904 49.008C34.7683 49.0007 34.629 48.9933 34.486 48.986V52H32.7315ZM37.522 52L34.904 48.238H36.818L39.4745 52H37.522ZM35.3825 47.6825C35.9728 47.6825 36.411 47.5798 36.697 47.3745C36.983 47.1692 37.126 46.8373 37.126 46.379C37.126 46.0783 37.0655 45.8327 36.9445 45.642C36.8235 45.4477 36.6402 45.3047 36.3945 45.213C36.1488 45.1213 35.8372 45.0755 35.4595 45.0755C35.2725 45.0755 35.1002 45.0828 34.9425 45.0975C34.7848 45.1122 34.6327 45.1342 34.486 45.1635V47.6385C34.5923 47.6458 34.6913 47.655 34.783 47.666C34.8783 47.6733 34.9737 47.6788 35.069 47.6825C35.168 47.6825 35.2725 47.6825 35.3825 47.6825ZM40.3155 52V43.86H46.03V45.29H42.081V50.57H46.085V52H40.3155ZM41.377 48.5515V47.1215H45.469V48.5515H41.377ZM46.3641 52L48.9931 43.86H51.5946L54.2236 52H52.4636L50.1866 44.641H50.3736L48.1021 52H46.3641ZM48.1901 49.8275L48.5751 48.403H52.0071L52.3866 49.8275H48.1901ZM55.0323 52V43.86H56.8198V50.515H60.5598V52H55.0323ZM32.7315 65V56.86H38.446V58.29H34.497V63.57H38.501V65H32.7315ZM33.793 61.5515V60.1215H37.885V61.5515H33.793ZM41.663 65.1045C41.2707 65.1045 40.8765 65.0733 40.4805 65.011C40.0882 64.9523 39.7252 64.868 39.3915 64.758V63.306C39.6225 63.383 39.8682 63.449 40.1285 63.504C40.3888 63.5553 40.6492 63.5957 40.9095 63.625C41.1735 63.6543 41.4228 63.669 41.6575 63.669C42.2038 63.669 42.5907 63.5865 42.818 63.4215C43.0453 63.2528 43.159 63.0182 43.159 62.7175C43.159 62.4645 43.0747 62.2665 42.906 62.1235C42.741 61.9805 42.4312 61.8503 41.9765 61.733L41.3605 61.5735C40.6492 61.3938 40.1102 61.1152 39.7435 60.7375C39.3805 60.3562 39.199 59.8538 39.199 59.2305C39.199 58.4532 39.4795 57.8463 40.0405 57.41C40.6052 56.9737 41.454 56.7555 42.587 56.7555C42.9537 56.7555 43.302 56.7775 43.632 56.8215C43.9657 56.8618 44.2608 56.9187 44.5175 56.992V58.444C44.2572 58.3633 43.9675 58.301 43.6485 58.257C43.3295 58.213 43.0087 58.191 42.686 58.191C42.2607 58.191 41.9233 58.2313 41.674 58.312C41.4247 58.389 41.245 58.499 41.135 58.642C41.0287 58.785 40.9755 58.95 40.9755 59.137C40.9755 59.3753 41.0488 59.5623 41.1955 59.698C41.3422 59.8337 41.6172 59.9565 42.0205 60.0665L42.631 60.226C43.159 60.3543 43.5935 60.5248 43.9345 60.7375C44.2755 60.9465 44.5267 61.205 44.688 61.513C44.853 61.8173 44.9355 62.1785 44.9355 62.5965C44.9355 63.1172 44.8053 63.5663 44.545 63.944C44.2883 64.318 43.9162 64.6058 43.4285 64.8075C42.9408 65.0055 42.3523 65.1045 41.663 65.1045ZM47.5199 65V58.345H44.9514V56.86H51.8759V58.345H49.3129V65H47.5199ZM51.0799 65L53.7089 56.86H56.3104L58.9394 65H57.1794L54.9024 57.641H55.0894L52.8179 65H51.0799ZM52.9059 62.8275L53.2909 61.403H56.7229L57.1024 62.8275H52.9059ZM60.7113 65V58.345H58.1428V56.86H65.0673V58.345H62.5043V65H60.7113ZM65.8711 65V56.86H71.5856V58.29H67.6366V63.57H71.6406V65H65.8711ZM66.9326 61.5515V60.1215H71.0246V61.5515H66.9326Z" fill="white"/>
<path d="M32.7315 52H32.2342V52.4973H32.7315V52ZM32.7315 44.0415L32.6229 43.5562L32.2342 43.6432V44.0415H32.7315ZM33.518 43.8985L33.5892 44.3907L33.5956 44.3897L33.518 43.8985ZM34.3815 43.7995L34.4182 44.2955L34.4243 44.295L34.3815 43.7995ZM37.918 44.399L37.6273 44.8025L37.6289 44.8037L37.918 44.399ZM38.3855 47.8365L38.7897 48.1263L38.7909 48.1245L38.3855 47.8365ZM37.192 48.7165L37.0141 48.2521L37.013 48.2525L37.192 48.7165ZM34.904 49.008L34.8771 49.5048L34.8906 49.5051L34.904 49.008ZM34.486 48.986L34.5115 48.4893L33.9887 48.4625V48.986H34.486ZM34.486 52V52.4973H34.9833V52H34.486ZM37.522 52L37.1138 52.2841L37.2622 52.4973H37.522V52ZM34.904 48.238V47.7407H33.952L34.4958 48.5221L34.904 48.238ZM36.818 48.238L37.2242 47.9511L37.0756 47.7407H36.818V48.238ZM39.4745 52V52.4973H40.4345L39.8807 51.7131L39.4745 52ZM36.9445 45.642L36.5223 45.9049L36.5246 45.9085L36.9445 45.642ZM36.3945 45.213L36.2206 45.6789L36.2206 45.6789L36.3945 45.213ZM34.9425 45.0975L34.8964 44.6023L34.8964 44.6023L34.9425 45.0975ZM34.486 45.1635L34.3885 44.6758L33.9887 44.7558V45.1635H34.486ZM34.486 47.6385H33.9887V48.1027L34.4518 48.1346L34.486 47.6385ZM34.783 47.666L34.7237 48.1598L34.7343 48.161L34.7449 48.1618L34.783 47.666ZM35.069 47.6825L35.0499 48.1794L35.0594 48.1798H35.069V47.6825ZM32.7315 52H33.2288V44.0415H32.7315H32.2342V52H32.7315ZM32.7315 44.0415L32.8401 44.5268C33.0721 44.4749 33.3217 44.4294 33.5892 44.3907L33.518 43.8985L33.4468 43.4063C33.157 43.4483 32.8822 43.4981 32.6229 43.5562L32.7315 44.0415ZM33.518 43.8985L33.5956 44.3897C33.86 44.348 34.1342 44.3165 34.4182 44.2954L34.3815 43.7995L34.3448 43.3036C34.0348 43.3265 33.7334 43.361 33.4404 43.4073L33.518 43.8985ZM34.3815 43.7995L34.4243 44.295C34.707 44.2705 34.9915 44.2583 35.278 44.2583V43.761V43.2637C34.9632 43.2637 34.65 43.2771 34.3387 43.304L34.3815 43.7995ZM35.278 43.761V44.2583C36.4016 44.2583 37.1591 44.4651 37.6273 44.8025L37.918 44.399L38.2087 43.9955C37.4963 43.4822 36.4937 43.2637 35.278 43.2637V43.761ZM37.918 44.399L37.6289 44.8037C38.0572 45.1095 38.3062 45.5983 38.3062 46.379H38.8035H39.3008C39.3008 45.363 38.9595 44.5318 38.2071 43.9943L37.918 44.399ZM38.8035 46.379H38.3062C38.3062 46.8766 38.1876 47.2563 37.9801 47.5485L38.3855 47.8365L38.7909 48.1245C39.1407 47.632 39.3008 47.0401 39.3008 46.379H38.8035ZM38.3855 47.8365L37.9813 47.5467C37.7679 47.8444 37.4549 48.0833 37.0141 48.2521L37.192 48.7165L37.3699 49.1809C37.9631 48.9537 38.4458 48.6059 38.7897 48.1263L38.3855 47.8365ZM37.192 48.7165L37.013 48.2525C36.5711 48.423 36.0207 48.5162 35.3495 48.5162V49.0135V49.5108C36.1083 49.5108 36.7863 49.406 37.371 49.1805L37.192 48.7165ZM35.3495 49.0135V48.5162C35.1918 48.5162 35.0479 48.5144 34.9174 48.5109L34.904 49.008L34.8906 49.5051C35.0314 49.5089 35.1845 49.5108 35.3495 49.5108V49.0135ZM34.904 49.008L34.9308 48.5114C34.7947 48.5041 34.6549 48.4967 34.5115 48.4893L34.486 48.986L34.4605 49.4827C34.6031 49.49 34.742 49.4973 34.8772 49.5046L34.904 49.008ZM34.486 48.986H33.9887V52H34.486H34.9833V48.986H34.486ZM34.486 52V51.5027H32.7315V52V52.4973H34.486V52ZM37.522 52L37.9302 51.7159L35.3122 47.9539L34.904 48.238L34.4958 48.5221L37.1138 52.2841L37.522 52ZM34.904 48.238V48.7353H36.818V48.238V47.7407H34.904V48.238ZM36.818 48.238L36.4118 48.5249L39.0683 52.2869L39.4745 52L39.8807 51.7131L37.2242 47.9511L36.818 48.238ZM39.4745 52V51.5027H37.522V52V52.4973H39.4745V52ZM35.3825 47.6825V48.1798C36.0133 48.1798 36.5764 48.0733 36.987 47.7785L36.697 47.3745L36.407 46.9705C36.2456 47.0864 35.9324 47.1852 35.3825 47.1852V47.6825ZM36.697 47.3745L36.987 47.7785C37.4411 47.4525 37.6233 46.9442 37.6233 46.379H37.126H36.6287C36.6287 46.7305 36.5249 46.8859 36.407 46.9705L36.697 47.3745ZM37.126 46.379H37.6233C37.6233 46.0145 37.5501 45.6682 37.3644 45.3755L36.9445 45.642L36.5246 45.9085C36.5809 45.9971 36.6287 46.1422 36.6287 46.379H37.126ZM36.9445 45.642L37.3667 45.3791C37.1793 45.0783 36.9013 44.8713 36.5684 44.7471L36.3945 45.213L36.2206 45.6789C36.379 45.738 36.4677 45.817 36.5223 45.9049L36.9445 45.642ZM36.3945 45.213L36.5684 44.7471C36.2484 44.6277 35.8726 44.5782 35.4595 44.5782V45.0755V45.5728C35.8017 45.5728 36.0493 45.615 36.2206 45.6789L36.3945 45.213ZM35.4595 45.0755V44.5782C35.2598 44.5782 35.0719 44.586 34.8964 44.6023L34.9425 45.0975L34.9886 45.5927C35.1285 45.5797 35.2852 45.5728 35.4595 45.5728V45.0755ZM34.9425 45.0975L34.8964 44.6023C34.7225 44.6185 34.5531 44.6429 34.3885 44.6758L34.486 45.1635L34.5835 45.6512C34.7122 45.6254 34.8472 45.6058 34.9886 45.5927L34.9425 45.0975ZM34.486 45.1635H33.9887V47.6385H34.486H34.9833V45.1635H34.486ZM34.486 47.6385L34.4518 48.1346C34.551 48.1415 34.6416 48.1499 34.7237 48.1598L34.783 47.666L34.8423 47.1722C34.7411 47.1601 34.6337 47.1502 34.5202 47.1424L34.486 47.6385ZM34.783 47.666L34.7449 48.1618C34.8465 48.1697 34.9482 48.1755 35.0499 48.1794L35.069 47.6825L35.0881 47.1856C34.9991 47.1821 34.9102 47.177 34.8211 47.1702L34.783 47.666ZM35.069 47.6825V48.1798C35.0692 48.1798 35.0694 48.1798 35.0696 48.1798C35.0698 48.1798 35.07 48.1798 35.0702 48.1798C35.0704 48.1798 35.0705 48.1798 35.0707 48.1798C35.0709 48.1798 35.0711 48.1798 35.0713 48.1798C35.0715 48.1798 35.0717 48.1798 35.0719 48.1798C35.0721 48.1798 35.0723 48.1798 35.0725 48.1798C35.0727 48.1798 35.0729 48.1798 35.0731 48.1798C35.0733 48.1798 35.0735 48.1798 35.0736 48.1798C35.0738 48.1798 35.074 48.1798 35.0742 48.1798C35.0744 48.1798 35.0746 48.1798 35.0748 48.1798C35.075 48.1798 35.0752 48.1798 35.0754 48.1798C35.0756 48.1798 35.0758 48.1798 35.076 48.1798C35.0762 48.1798 35.0764 48.1798 35.0766 48.1798C35.0767 48.1798 35.0769 48.1798 35.0771 48.1798C35.0773 48.1798 35.0775 48.1798 35.0777 48.1798C35.0779 48.1798 35.0781 48.1798 35.0783 48.1798C35.0785 48.1798 35.0787 48.1798 35.0789 48.1798C35.0791 48.1798 35.0793 48.1798 35.0795 48.1798C35.0797 48.1798 35.0799 48.1798 35.08 48.1798C35.0802 48.1798 35.0804 48.1798 35.0806 48.1798C35.0808 48.1798 35.081 48.1798 35.0812 48.1798C35.0814 48.1798 35.0816 48.1798 35.0818 48.1798C35.082 48.1798 35.0822 48.1798 35.0824 48.1798C35.0826 48.1798 35.0828 48.1798 35.083 48.1798C35.0832 48.1798 35.0833 48.1798 35.0835 48.1798C35.0837 48.1798 35.0839 48.1798 35.0841 48.1798C35.0843 48.1798 35.0845 48.1798 35.0847 48.1798C35.0849 48.1798 35.0851 48.1798 35.0853 48.1798C35.0855 48.1798 35.0857 48.1798 35.0859 48.1798C35.0861 48.1798 35.0863 48.1798 35.0865 48.1798C35.0867 48.1798 35.0868 48.1798 35.087 48.1798C35.0872 48.1798 35.0874 48.1798 35.0876 48.1798C35.0878 48.1798 35.088 48.1798 35.0882 48.1798C35.0884 48.1798 35.0886 48.1798 35.0888 48.1798C35.089 48.1798 35.0892 48.1798 35.0894 48.1798C35.0896 48.1798 35.0898 48.1798 35.09 48.1798C35.0902 48.1798 35.0904 48.1798 35.0905 48.1798C35.0907 48.1798 35.0909 48.1798 35.0911 48.1798C35.0913 48.1798 35.0915 48.1798 35.0917 48.1798C35.0919 48.1798 35.0921 48.1798 35.0923 48.1798C35.0925 48.1798 35.0927 48.1798 35.0929 48.1798C35.0931 48.1798 35.0933 48.1798 35.0935 48.1798C35.0937 48.1798 35.0939 48.1798 35.0941 48.1798C35.0943 48.1798 35.0945 48.1798 35.0946 48.1798C35.0948 48.1798 35.095 48.1798 35.0952 48.1798C35.0954 48.1798 35.0956 48.1798 35.0958 48.1798C35.096 48.1798 35.0962 48.1798 35.0964 48.1798C35.0966 48.1798 35.0968 48.1798 35.097 48.1798C35.0972 48.1798 35.0974 48.1798 35.0976 48.1798C35.0978 48.1798 35.098 48.1798 35.0982 48.1798C35.0984 48.1798 35.0986 48.1798 35.0987 48.1798C35.0989 48.1798 35.0991 48.1798 35.0993 48.1798C35.0995 48.1798 35.0997 48.1798 35.0999 48.1798C35.1001 48.1798 35.1003 48.1798 35.1005 48.1798C35.1007 48.1798 35.1009 48.1798 35.1011 48.1798C35.1013 48.1798 35.1015 48.1798 35.1017 48.1798C35.1019 48.1798 35.1021 48.1798 35.1023 48.1798C35.1025 48.1798 35.1027 48.1798 35.1029 48.1798C35.1031 48.1798 35.1032 48.1798 35.1034 48.1798C35.1036 48.1798 35.1038 48.1798 35.104 48.1798C35.1042 48.1798 35.1044 48.1798 35.1046 48.1798C35.1048 48.1798 35.105 48.1798 35.1052 48.1798C35.1054 48.1798 35.1056 48.1798 35.1058 48.1798C35.106 48.1798 35.1062 48.1798 35.1064 48.1798C35.1066 48.1798 35.1068 48.1798 35.107 48.1798C35.1072 48.1798 35.1074 48.1798 35.1076 48.1798C35.1078 48.1798 35.108 48.1798 35.1081 48.1798C35.1083 48.1798 35.1085 48.1798 35.1087 48.1798C35.1089 48.1798 35.1091 48.1798 35.1093 48.1798C35.1095 48.1798 35.1097 48.1798 35.1099 48.1798C35.1101 48.1798 35.1103 48.1798 35.1105 48.1798C35.1107 48.1798 35.1109 48.1798 35.1111 48.1798C35.1113 48.1798 35.1115 48.1798 35.1117 48.1798C35.1119 48.1798 35.1121 48.1798 35.1123 48.1798C35.1125 48.1798 35.1127 48.1798 35.1129 48.1798C35.1131 48.1798 35.1133 48.1798 35.1134 48.1798C35.1136 48.1798 35.1138 48.1798 35.114 48.1798C35.1142 48.1798 35.1144 48.1798 35.1146 48.1798C35.1148 48.1798 35.115 48.1798 35.1152 48.1798C35.1154 48.1798 35.1156 48.1798 35.1158 48.1798C35.116 48.1798 35.1162 48.1798 35.1164 48.1798C35.1166 48.1798 35.1168 48.1798 35.117 48.1798C35.1172 48.1798 35.1174 48.1798 35.1176 48.1798C35.1178 48.1798 35.118 48.1798 35.1182 48.1798C35.1184 48.1798 35.1186 48.1798 35.1188 48.1798C35.119 48.1798 35.1192 48.1798 35.1194 48.1798C35.1195 48.1798 35.1197 48.1798 35.1199 48.1798C35.1201 48.1798 35.1203 48.1798 35.1205 48.1798C35.1207 48.1798 35.1209 48.1798 35.1211 48.1798C35.1213 48.1798 35.1215 48.1798 35.1217 48.1798C35.1219 48.1798 35.1221 48.1798 35.1223 48.1798C35.1225 48.1798 35.1227 48.1798 35.1229 48.1798C35.1231 48.1798 35.1233 48.1798 35.1235 48.1798C35.1237 48.1798 35.1239 48.1798 35.1241 48.1798C35.1243 48.1798 35.1245 48.1798 35.1247 48.1798C35.1249 48.1798 35.1251 48.1798 35.1253 48.1798C35.1255 48.1798 35.1257 48.1798 35.1259 48.1798C35.1261 48.1798 35.1263 48.1798 35.1265 48.1798C35.1266 48.1798 35.1268 48.1798 35.127 48.1798C35.1272 48.1798 35.1274 48.1798 35.1276 48.1798C35.1278 48.1798 35.128 48.1798 35.1282 48.1798C35.1284 48.1798 35.1286 48.1798 35.1288 48.1798C35.129 48.1798 35.1292 48.1798 35.1294 48.1798C35.1296 48.1798 35.1298 48.1798 35.13 48.1798C35.1302 48.1798 35.1304 48.1798 35.1306 48.1798C35.1308 48.1798 35.131 48.1798 35.1312 48.1798C35.1314 48.1798 35.1316 48.1798 35.1318 48.1798C35.132 48.1798 35.1322 48.1798 35.1324 48.1798C35.1326 48.1798 35.1328 48.1798 35.133 48.1798C35.1332 48.1798 35.1334 48.1798 35.1336 48.1798C35.1338 48.1798 35.134 48.1798 35.1342 48.1798C35.1344 48.1798 35.1346 48.1798 35.1348 48.1798C35.135 48.1798 35.1352 48.1798 35.1354 48.1798C35.1356 48.1798 35.1357 48.1798 35.1359 48.1798C35.1361 48.1798 35.1363 48.1798 35.1365 48.1798C35.1367 48.1798 35.1369 48.1798 35.1371 48.1798C35.1373 48.1798 35.1375 48.1798 35.1377 48.1798C35.1379 48.1798 35.1381 48.1798 35.1383 48.1798C35.1385 48.1798 35.1387 48.1798 35.1389 48.1798C35.1391 48.1798 35.1393 48.1798 35.1395 48.1798C35.1397 48.1798 35.1399 48.1798 35.1401 48.1798C35.1403 48.1798 35.1405 48.1798 35.1407 48.1798C35.1409 48.1798 35.1411 48.1798 35.1413 48.1798C35.1415 48.1798 35.1417 48.1798 35.1419 48.1798C35.1421 48.1798 35.1423 48.1798 35.1425 48.1798C35.1427 48.1798 35.1429 48.1798 35.1431 48.1798C35.1433 48.1798 35.1435 48.1798 35.1437 48.1798C35.1439 48.1798 35.1441 48.1798 35.1443 48.1798C35.1445 48.1798 35.1447 48.1798 35.1449 48.1798C35.1451 48.1798 35.1453 48.1798 35.1455 48.1798C35.1457 48.1798 35.1459 48.1798 35.1461 48.1798C35.1463 48.1798 35.1465 48.1798 35.1467 48.1798C35.1469 48.1798 35.1471 48.1798 35.1473 48.1798C35.1475 48.1798 35.1477 48.1798 35.1479 48.1798C35.1481 48.1798 35.1483 48.1798 35.1485 48.1798C35.1487 48.1798 35.1489 48.1798 35.1491 48.1798C35.1493 48.1798 35.1495 48.1798 35.1497 48.1798C35.1499 48.1798 35.1501 48.1798 35.1502 48.1798C35.1504 48.1798 35.1506 48.1798 35.1508 48.1798C35.151 48.1798 35.1512 48.1798 35.1514 48.1798C35.1516 48.1798 35.1518 48.1798 35.152 48.1798C35.1522 48.1798 35.1524 48.1798 35.1526 48.1798C35.1528 48.1798 35.153 48.1798 35.1532 48.1798C35.1534 48.1798 35.1536 48.1798 35.1538 48.1798C35.154 48.1798 35.1542 48.1798 35.1544 48.1798C35.1546 48.1798 35.1548 48.1798 35.155 48.1798C35.1552 48.1798 35.1554 48.1798 35.1556 48.1798C35.1558 48.1798 35.156 48.1798 35.1562 48.1798C35.1564 48.1798 35.1566 48.1798 35.1568 48.1798C35.157 48.1798 35.1572 48.1798 35.1574 48.1798C35.1576 48.1798 35.1578 48.1798 35.158 48.1798C35.1582 48.1798 35.1584 48.1798 35.1586 48.1798C35.1588 48.1798 35.159 48.1798 35.1592 48.1798C35.1594 48.1798 35.1596 48.1798 35.1598 48.1798C35.16 48.1798 35.1602 48.1798 35.1604 48.1798C35.1606 48.1798 35.1608 48.1798 35.161 48.1798C35.1612 48.1798 35.1614 48.1798 35.1616 48.1798C35.1618 48.1798 35.162 48.1798 35.1622 48.1798C35.1624 48.1798 35.1626 48.1798 35.1628 48.1798C35.163 48.1798 35.1632 48.1798 35.1634 48.1798C35.1636 48.1798 35.1638 48.1798 35.164 48.1798C35.1642 48.1798 35.1644 48.1798 35.1646 48.1798C35.1648 48.1798 35.165 48.1798 35.1652 48.1798C35.1654 48.1798 35.1656 48.1798 35.1658 48.1798C35.166 48.1798 35.1662 48.1798 35.1664 48.1798C35.1666 48.1798 35.1668 48.1798 35.167 48.1798C35.1672 48.1798 35.1674 48.1798 35.1676 48.1798C35.1678 48.1798 35.168 48.1798 35.1682 48.1798C35.1684 48.1798 35.1686 48.1798 35.1688 48.1798C35.169 48.1798 35.1692 48.1798 35.1694 48.1798C35.1696 48.1798 35.1698 48.1798 35.17 48.1798C35.1702 48.1798 35.1704 48.1798 35.1706 48.1798C35.1708 48.1798 35.171 48.1798 35.1712 48.1798C35.1714 48.1798 35.1716 48.1798 35.1718 48.1798C35.172 48.1798 35.1722 48.1798 35.1724 48.1798C35.1726 48.1798 35.1728 48.1798 35.173 48.1798C35.1732 48.1798 35.1734 48.1798 35.1736 48.1798C35.1738 48.1798 35.174 48.1798 35.1742 48.1798C35.1744 48.1798 35.1747 48.1798 35.1749 48.1798C35.1751 48.1798 35.1753 48.1798 35.1755 48.1798C35.1757 48.1798 35.1759 48.1798 35.1761 48.1798C35.1763 48.1798 35.1765 48.1798 35.1767 48.1798C35.1769 48.1798 35.1771 48.1798 35.1773 48.1798C35.1775 48.1798 35.1777 48.1798 35.1779 48.1798C35.1781 48.1798 35.1783 48.1798 35.1785 48.1798C35.1787 48.1798 35.1789 48.1798 35.1791 48.1798C35.1793 48.1798 35.1795 48.1798 35.1797 48.1798C35.1799 48.1798 35.1801 48.1798 35.1803 48.1798C35.1805 48.1798 35.1807 48.1798 35.1809 48.1798C35.1811 48.1798 35.1813 48.1798 35.1815 48.1798C35.1817 48.1798 35.1819 48.1798 35.1821 48.1798C35.1823 48.1798 35.1825 48.1798 35.1827 48.1798C35.1829 48.1798 35.1831 48.1798 35.1833 48.1798C35.1835 48.1798 35.1837 48.1798 35.1839 48.1798C35.1841 48.1798 35.1843 48.1798 35.1845 48.1798C35.1847 48.1798 35.1849 48.1798 35.1851 48.1798C35.1853 48.1798 35.1855 48.1798 35.1857 48.1798C35.1859 48.1798 35.1861 48.1798 35.1863 48.1798C35.1865 48.1798 35.1867 48.1798 35.1869 48.1798C35.1871 48.1798 35.1873 48.1798 35.1875 48.1798C35.1877 48.1798 35.1879 48.1798 35.1881 48.1798C35.1883 48.1798 35.1885 48.1798 35.1887 48.1798C35.1889 48.1798 35.1891 48.1798 35.1893 48.1798C35.1896 48.1798 35.1898 48.1798 35.19 48.1798C35.1902 48.1798 35.1904 48.1798 35.1906 48.1798C35.1908 48.1798 35.191 48.1798 35.1912 48.1798C35.1914 48.1798 35.1916 48.1798 35.1918 48.1798C35.192 48.1798 35.1922 48.1798 35.1924 48.1798C35.1926 48.1798 35.1928 48.1798 35.193 48.1798C35.1932 48.1798 35.1934 48.1798 35.1936 48.1798C35.1938 48.1798 35.194 48.1798 35.1942 48.1798C35.1944 48.1798 35.1946 48.1798 35.1948 48.1798C35.195 48.1798 35.1952 48.1798 35.1954 48.1798C35.1956 48.1798 35.1958 48.1798 35.196 48.1798C35.1962 48.1798 35.1964 48.1798 35.1966 48.1798C35.1968 48.1798 35.197 48.1798 35.1972 48.1798C35.1974 48.1798 35.1976 48.1798 35.1978 48.1798C35.198 48.1798 35.1982 48.1798 35.1984 48.1798C35.1987 48.1798 35.1989 48.1798 35.1991 48.1798C35.1993 48.1798 35.1995 48.1798 35.1997 48.1798C35.1999 48.1798 35.2001 48.1798 35.2003 48.1798C35.2005 48.1798 35.2007 48.1798 35.2009 48.1798C35.2011 48.1798 35.2013 48.1798 35.2015 48.1798C35.2017 48.1798 35.2019 48.1798 35.2021 48.1798C35.2023 48.1798 35.2025 48.1798 35.2027 48.1798C35.2029 48.1798 35.2031 48.1798 35.2033 48.1798C35.2035 48.1798 35.2037 48.1798 35.2039 48.1798C35.2041 48.1798 35.2043 48.1798 35.2045 48.1798C35.2047 48.1798 35.2049 48.1798 35.2051 48.1798C35.2053 48.1798 35.2055 48.1798 35.2057 48.1798C35.206 48.1798 35.2062 48.1798 35.2064 48.1798C35.2066 48.1798 35.2068 48.1798 35.207 48.1798C35.2072 48.1798 35.2074 48.1798 35.2076 48.1798C35.2078 48.1798 35.208 48.1798 35.2082 48.1798C35.2084 48.1798 35.2086 48.1798 35.2088 48.1798C35.209 48.1798 35.2092 48.1798 35.2094 48.1798C35.2096 48.1798 35.2098 48.1798 35.21 48.1798C35.2102 48.1798 35.2104 48.1798 35.2106 48.1798C35.2108 48.1798 35.211 48.1798 35.2112 48.1798C35.2114 48.1798 35.2116 48.1798 35.2118 48.1798C35.212 48.1798 35.2123 48.1798 35.2125 48.1798C35.2127 48.1798 35.2129 48.1798 35.2131 48.1798C35.2133 48.1798 35.2135 48.1798 35.2137 48.1798C35.2139 48.1798 35.2141 48.1798 35.2143 48.1798C35.2145 48.1798 35.2147 48.1798 35.2149 48.1798C35.2151 48.1798 35.2153 48.1798 35.2155 48.1798C35.2157 48.1798 35.2159 48.1798 35.2161 48.1798C35.2163 48.1798 35.2165 48.1798 35.2167 48.1798C35.2169 48.1798 35.2171 48.1798 35.2173 48.1798C35.2175 48.1798 35.2177 48.1798 35.218 48.1798C35.2182 48.1798 35.2184 48.1798 35.2186 48.1798C35.2188 48.1798 35.219 48.1798 35.2192 48.1798C35.2194 48.1798 35.2196 48.1798 35.2198 48.1798C35.22 48.1798 35.2202 48.1798 35.2204 48.1798C35.2206 48.1798 35.2208 48.1798 35.221 48.1798C35.2212 48.1798 35.2214 48.1798 35.2216 48.1798C35.2218 48.1798 35.222 48.1798 35.2222 48.1798C35.2224 48.1798 35.2226 48.1798 35.2229 48.1798C35.2231 48.1798 35.2233 48.1798 35.2235 48.1798C35.2237 48.1798 35.2239 48.1798 35.2241 48.1798C35.2243 48.1798 35.2245 48.1798 35.2247 48.1798C35.2249 48.1798 35.2251 48.1798 35.2253 48.1798C35.2255 48.1798 35.2257 48.1798 35.2259 48.1798C35.2261 48.1798 35.2263 48.1798 35.2265 48.1798C35.2267 48.1798 35.2269 48.1798 35.2271 48.1798C35.2273 48.1798 35.2275 48.1798 35.2278 48.1798C35.228 48.1798 35.2282 48.1798 35.2284 48.1798C35.2286 48.1798 35.2288 48.1798 35.229 48.1798C35.2292 48.1798 35.2294 48.1798 35.2296 48.1798C35.2298 48.1798 35.23 48.1798 35.2302 48.1798C35.2304 48.1798 35.2306 48.1798 35.2308 48.1798C35.231 48.1798 35.2312 48.1798 35.2314 48.1798C35.2316 48.1798 35.2318 48.1798 35.2321 48.1798C35.2323 48.1798 35.2325 48.1798 35.2327 48.1798C35.2329 48.1798 35.2331 48.1798 35.2333 48.1798C35.2335 48.1798 35.2337 48.1798 35.2339 48.1798C35.2341 48.1798 35.2343 48.1798 35.2345 48.1798C35.2347 48.1798 35.2349 48.1798 35.2351 48.1798C35.2353 48.1798 35.2355 48.1798 35.2357 48.1798C35.2359 48.1798 35.2362 48.1798 35.2364 48.1798C35.2366 48.1798 35.2368 48.1798 35.237 48.1798C35.2372 48.1798 35.2374 48.1798 35.2376 48.1798C35.2378 48.1798 35.238 48.1798 35.2382 48.1798C35.2384 48.1798 35.2386 48.1798 35.2388 48.1798C35.239 48.1798 35.2392 48.1798 35.2394 48.1798C35.2396 48.1798 35.2398 48.1798 35.2401 48.1798C35.2403 48.1798 35.2405 48.1798 35.2407 48.1798C35.2409 48.1798 35.2411 48.1798 35.2413 48.1798C35.2415 48.1798 35.2417 48.1798 35.2419 48.1798C35.2421 48.1798 35.2423 48.1798 35.2425 48.1798C35.2427 48.1798 35.2429 48.1798 35.2431 48.1798C35.2433 48.1798 35.2435 48.1798 35.2437 48.1798C35.244 48.1798 35.2442 48.1798 35.2444 48.1798C35.2446 48.1798 35.2448 48.1798 35.245 48.1798C35.2452 48.1798 35.2454 48.1798 35.2456 48.1798C35.2458 48.1798 35.246 48.1798 35.2462 48.1798C35.2464 48.1798 35.2466 48.1798 35.2468 48.1798C35.247 48.1798 35.2472 48.1798 35.2475 48.1798C35.2477 48.1798 35.2479 48.1798 35.2481 48.1798C35.2483 48.1798 35.2485 48.1798 35.2487 48.1798C35.2489 48.1798 35.2491 48.1798 35.2493 48.1798C35.2495 48.1798 35.2497 48.1798 35.2499 48.1798C35.2501 48.1798 35.2503 48.1798 35.2505 48.1798C35.2507 48.1798 35.251 48.1798 35.2512 48.1798C35.2514 48.1798 35.2516 48.1798 35.2518 48.1798C35.252 48.1798 35.2522 48.1798 35.2524 48.1798C35.2526 48.1798 35.2528 48.1798 35.253 48.1798C35.2532 48.1798 35.2534 48.1798 35.2536 48.1798C35.2538 48.1798 35.254 48.1798 35.2543 48.1798C35.2545 48.1798 35.2547 48.1798 35.2549 48.1798C35.2551 48.1798 35.2553 48.1798 35.2555 48.1798C35.2557 48.1798 35.2559 48.1798 35.2561 48.1798C35.2563 48.1798 35.2565 48.1798 35.2567 48.1798C35.2569 48.1798 35.2571 48.1798 35.2574 48.1798C35.2576 48.1798 35.2578 48.1798 35.258 48.1798C35.2582 48.1798 35.2584 48.1798 35.2586 48.1798C35.2588 48.1798 35.259 48.1798 35.2592 48.1798C35.2594 48.1798 35.2596 48.1798 35.2598 48.1798C35.26 48.1798 35.2602 48.1798 35.2605 48.1798C35.2607 48.1798 35.2609 48.1798 35.2611 48.1798C35.2613 48.1798 35.2615 48.1798 35.2617 48.1798C35.2619 48.1798 35.2621 48.1798 35.2623 48.1798C35.2625 48.1798 35.2627 48.1798 35.2629 48.1798C35.2631 48.1798 35.2633 48.1798 35.2636 48.1798C35.2638 48.1798 35.264 48.1798 35.2642 48.1798C35.2644 48.1798 35.2646 48.1798 35.2648 48.1798C35.265 48.1798 35.2652 48.1798 35.2654 48.1798C35.2656 48.1798 35.2658 48.1798 35.266 48.1798C35.2662 48.1798 35.2665 48.1798 35.2667 48.1798C35.2669 48.1798 35.2671 48.1798 35.2673 48.1798C35.2675 48.1798 35.2677 48.1798 35.2679 48.1798C35.2681 48.1798 35.2683 48.1798 35.2685 48.1798C35.2687 48.1798 35.2689 48.1798 35.2691 48.1798C35.2694 48.1798 35.2696 48.1798 35.2698 48.1798C35.27 48.1798 35.2702 48.1798 35.2704 48.1798C35.2706 48.1798 35.2708 48.1798 35.271 48.1798C35.2712 48.1798 35.2714 48.1798 35.2716 48.1798C35.2718 48.1798 35.272 48.1798 35.2723 48.1798C35.2725 48.1798 35.2727 48.1798 35.2729 48.1798C35.2731 48.1798 35.2733 48.1798 35.2735 48.1798C35.2737 48.1798 35.2739 48.1798 35.2741 48.1798C35.2743 48.1798 35.2745 48.1798 35.2747 48.1798C35.275 48.1798 35.2752 48.1798 35.2754 48.1798C35.2756 48.1798 35.2758 48.1798 35.276 48.1798C35.2762 48.1798 35.2764 48.1798 35.2766 48.1798C35.2768 48.1798 35.277 48.1798 35.2772 48.1798C35.2775 48.1798 35.2777 48.1798 35.2779 48.1798C35.2781 48.1798 35.2783 48.1798 35.2785 48.1798C35.2787 48.1798 35.2789 48.1798 35.2791 48.1798C35.2793 48.1798 35.2795 48.1798 35.2797 48.1798C35.2799 48.1798 35.2802 48.1798 35.2804 48.1798C35.2806 48.1798 35.2808 48.1798 35.281 48.1798C35.2812 48.1798 35.2814 48.1798 35.2816 48.1798C35.2818 48.1798 35.282 48.1798 35.2822 48.1798C35.2824 48.1798 35.2827 48.1798 35.2829 48.1798C35.2831 48.1798 35.2833 48.1798 35.2835 48.1798C35.2837 48.1798 35.2839 48.1798 35.2841 48.1798C35.2843 48.1798 35.2845 48.1798 35.2847 48.1798C35.2849 48.1798 35.2852 48.1798 35.2854 48.1798C35.2856 48.1798 35.2858 48.1798 35.286 48.1798C35.2862 48.1798 35.2864 48.1798 35.2866 48.1798C35.2868 48.1798 35.287 48.1798 35.2872 48.1798C35.2874 48.1798 35.2877 48.1798 35.2879 48.1798C35.2881 48.1798 35.2883 48.1798 35.2885 48.1798C35.2887 48.1798 35.2889 48.1798 35.2891 48.1798C35.2893 48.1798 35.2895 48.1798 35.2897 48.1798C35.2899 48.1798 35.2902 48.1798 35.2904 48.1798C35.2906 48.1798 35.2908 48.1798 35.291 48.1798C35.2912 48.1798 35.2914 48.1798 35.2916 48.1798C35.2918 48.1798 35.292 48.1798 35.2922 48.1798C35.2925 48.1798 35.2927 48.1798 35.2929 48.1798C35.2931 48.1798 35.2933 48.1798 35.2935 48.1798C35.2937 48.1798 35.2939 48.1798 35.2941 48.1798C35.2943 48.1798 35.2945 48.1798 35.2948 48.1798C35.295 48.1798 35.2952 48.1798 35.2954 48.1798C35.2956 48.1798 35.2958 48.1798 35.296 48.1798C35.2962 48.1798 35.2964 48.1798 35.2966 48.1798C35.2968 48.1798 35.2971 48.1798 35.2973 48.1798C35.2975 48.1798 35.2977 48.1798 35.2979 48.1798C35.2981 48.1798 35.2983 48.1798 35.2985 48.1798C35.2987 48.1798 35.2989 48.1798 35.2991 48.1798C35.2994 48.1798 35.2996 48.1798 35.2998 48.1798C35.3 48.1798 35.3002 48.1798 35.3004 48.1798C35.3006 48.1798 35.3008 48.1798 35.301 48.1798C35.3012 48.1798 35.3015 48.1798 35.3017 48.1798C35.3019 48.1798 35.3021 48.1798 35.3023 48.1798C35.3025 48.1798 35.3027 48.1798 35.3029 48.1798C35.3031 48.1798 35.3033 48.1798 35.3035 48.1798C35.3038 48.1798 35.304 48.1798 35.3042 48.1798C35.3044 48.1798 35.3046 48.1798 35.3048 48.1798C35.305 48.1798 35.3052 48.1798 35.3054 48.1798C35.3056 48.1798 35.3059 48.1798 35.3061 48.1798C35.3063 48.1798 35.3065 48.1798 35.3067 48.1798C35.3069 48.1798 35.3071 48.1798 35.3073 48.1798C35.3075 48.1798 35.3077 48.1798 35.308 48.1798C35.3082 48.1798 35.3084 48.1798 35.3086 48.1798C35.3088 48.1798 35.309 48.1798 35.3092 48.1798C35.3094 48.1798 35.3096 48.1798 35.3098 48.1798C35.3101 48.1798 35.3103 48.1798 35.3105 48.1798C35.3107 48.1798 35.3109 48.1798 35.3111 48.1798C35.3113 48.1798 35.3115 48.1798 35.3117 48.1798C35.3119 48.1798 35.3122 48.1798 35.3124 48.1798C35.3126 48.1798 35.3128 48.1798 35.313 48.1798C35.3132 48.1798 35.3134 48.1798 35.3136 48.1798C35.3138 48.1798 35.314 48.1798 35.3143 48.1798C35.3145 48.1798 35.3147 48.1798 35.3149 48.1798C35.3151 48.1798 35.3153 48.1798 35.3155 48.1798C35.3157 48.1798 35.3159 48.1798 35.3161 48.1798C35.3164 48.1798 35.3166 48.1798 35.3168 48.1798C35.317 48.1798 35.3172 48.1798 35.3174 48.1798C35.3176 48.1798 35.3178 48.1798 35.318 48.1798C35.3183 48.1798 35.3185 48.1798 35.3187 48.1798C35.3189 48.1798 35.3191 48.1798 35.3193 48.1798C35.3195 48.1798 35.3197 48.1798 35.3199 48.1798C35.3202 48.1798 35.3204 48.1798 35.3206 48.1798C35.3208 48.1798 35.321 48.1798 35.3212 48.1798C35.3214 48.1798 35.3216 48.1798 35.3218 48.1798C35.322 48.1798 35.3223 48.1798 35.3225 48.1798C35.3227 48.1798 35.3229 48.1798 35.3231 48.1798C35.3233 48.1798 35.3235 48.1798 35.3237 48.1798C35.3239 48.1798 35.3242 48.1798 35.3244 48.1798C35.3246 48.1798 35.3248 48.1798 35.325 48.1798C35.3252 48.1798 35.3254 48.1798 35.3256 48.1798C35.3258 48.1798 35.3261 48.1798 35.3263 48.1798C35.3265 48.1798 35.3267 48.1798 35.3269 48.1798C35.3271 48.1798 35.3273 48.1798 35.3275 48.1798C35.3277 48.1798 35.328 48.1798 35.3282 48.1798C35.3284 48.1798 35.3286 48.1798 35.3288 48.1798C35.329 48.1798 35.3292 48.1798 35.3294 48.1798C35.3296 48.1798 35.3299 48.1798 35.3301 48.1798C35.3303 48.1798 35.3305 48.1798 35.3307 48.1798C35.3309 48.1798 35.3311 48.1798 35.3313 48.1798C35.3316 48.1798 35.3318 48.1798 35.332 48.1798C35.3322 48.1798 35.3324 48.1798 35.3326 48.1798C35.3328 48.1798 35.333 48.1798 35.3332 48.1798C35.3335 48.1798 35.3337 48.1798 35.3339 48.1798C35.3341 48.1798 35.3343 48.1798 35.3345 48.1798C35.3347 48.1798 35.3349 48.1798 35.3351 48.1798C35.3354 48.1798 35.3356 48.1798 35.3358 48.1798C35.336 48.1798 35.3362 48.1798 35.3364 48.1798C35.3366 48.1798 35.3368 48.1798 35.3371 48.1798C35.3373 48.1798 35.3375 48.1798 35.3377 48.1798C35.3379 48.1798 35.3381 48.1798 35.3383 48.1798C35.3385 48.1798 35.3388 48.1798 35.339 48.1798C35.3392 48.1798 35.3394 48.1798 35.3396 48.1798C35.3398 48.1798 35.34 48.1798 35.3402 48.1798C35.3404 48.1798 35.3407 48.1798 35.3409 48.1798C35.3411 48.1798 35.3413 48.1798 35.3415 48.1798C35.3417 48.1798 35.3419 48.1798 35.3421 48.1798C35.3424 48.1798 35.3426 48.1798 35.3428 48.1798C35.343 48.1798 35.3432 48.1798 35.3434 48.1798C35.3436 48.1798 35.3438 48.1798 35.3441 48.1798C35.3443 48.1798 35.3445 48.1798 35.3447 48.1798C35.3449 48.1798 35.3451 48.1798 35.3453 48.1798C35.3455 48.1798 35.3458 48.1798 35.346 48.1798C35.3462 48.1798 35.3464 48.1798 35.3466 48.1798C35.3468 48.1798 35.347 48.1798 35.3472 48.1798C35.3475 48.1798 35.3477 48.1798 35.3479 48.1798C35.3481 48.1798 35.3483 48.1798 35.3485 48.1798C35.3487 48.1798 35.3489 48.1798 35.3492 48.1798C35.3494 48.1798 35.3496 48.1798 35.3498 48.1798C35.35 48.1798 35.3502 48.1798 35.3504 48.1798C35.3506 48.1798 35.3509 48.1798 35.3511 48.1798C35.3513 48.1798 35.3515 48.1798 35.3517 48.1798C35.3519 48.1798 35.3521 48.1798 35.3523 48.1798C35.3526 48.1798 35.3528 48.1798 35.353 48.1798C35.3532 48.1798 35.3534 48.1798 35.3536 48.1798C35.3538 48.1798 35.354 48.1798 35.3543 48.1798C35.3545 48.1798 35.3547 48.1798 35.3549 48.1798C35.3551 48.1798 35.3553 48.1798 35.3555 48.1798C35.3558 48.1798 35.356 48.1798 35.3562 48.1798C35.3564 48.1798 35.3566 48.1798 35.3568 48.1798C35.357 48.1798 35.3572 48.1798 35.3575 48.1798C35.3577 48.1798 35.3579 48.1798 35.3581 48.1798C35.3583 48.1798 35.3585 48.1798 35.3587 48.1798C35.359 48.1798 35.3592 48.1798 35.3594 48.1798C35.3596 48.1798 35.3598 48.1798 35.36 48.1798C35.3602 48.1798 35.3604 48.1798 35.3607 48.1798C35.3609 48.1798 35.3611 48.1798 35.3613 48.1798C35.3615 48.1798 35.3617 48.1798 35.3619 48.1798C35.3622 48.1798 35.3624 48.1798 35.3626 48.1798C35.3628 48.1798 35.363 48.1798 35.3632 48.1798C35.3634 48.1798 35.3636 48.1798 35.3639 48.1798C35.3641 48.1798 35.3643 48.1798 35.3645 48.1798C35.3647 48.1798 35.3649 48.1798 35.3651 48.1798C35.3654 48.1798 35.3656 48.1798 35.3658 48.1798C35.366 48.1798 35.3662 48.1798 35.3664 48.1798C35.3666 48.1798 35.3669 48.1798 35.3671 48.1798C35.3673 48.1798 35.3675 48.1798 35.3677 48.1798C35.3679 48.1798 35.3681 48.1798 35.3684 48.1798C35.3686 48.1798 35.3688 48.1798 35.369 48.1798C35.3692 48.1798 35.3694 48.1798 35.3696 48.1798C35.3698 48.1798 35.3701 48.1798 35.3703 48.1798C35.3705 48.1798 35.3707 48.1798 35.3709 48.1798C35.3711 48.1798 35.3713 48.1798 35.3716 48.1798C35.3718 48.1798 35.372 48.1798 35.3722 48.1798C35.3724 48.1798 35.3726 48.1798 35.3728 48.1798C35.3731 48.1798 35.3733 48.1798 35.3735 48.1798C35.3737 48.1798 35.3739 48.1798 35.3741 48.1798C35.3743 48.1798 35.3746 48.1798 35.3748 48.1798C35.375 48.1798 35.3752 48.1798 35.3754 48.1798C35.3756 48.1798 35.3758 48.1798 35.3761 48.1798C35.3763 48.1798 35.3765 48.1798 35.3767 48.1798C35.3769 48.1798 35.3771 48.1798 35.3773 48.1798C35.3776 48.1798 35.3778 48.1798 35.378 48.1798C35.3782 48.1798 35.3784 48.1798 35.3786 48.1798C35.3788 48.1798 35.3791 48.1798 35.3793 48.1798C35.3795 48.1798 35.3797 48.1798 35.3799 48.1798C35.3801 48.1798 35.3804 48.1798 35.3806 48.1798C35.3808 48.1798 35.381 48.1798 35.3812 48.1798C35.3814 48.1798 35.3816 48.1798 35.3819 48.1798C35.3821 48.1798 35.3823 48.1798 35.3825 48.1798V47.6825V47.1852C35.3823 47.1852 35.3821 47.1852 35.3819 47.1852C35.3816 47.1852 35.3814 47.1852 35.3812 47.1852C35.381 47.1852 35.3808 47.1852 35.3806 47.1852C35.3804 47.1852 35.3801 47.1852 35.3799 47.1852C35.3797 47.1852 35.3795 47.1852 35.3793 47.1852C35.3791 47.1852 35.3788 47.1852 35.3786 47.1852C35.3784 47.1852 35.3782 47.1852 35.378 47.1852C35.3778 47.1852 35.3776 47.1852 35.3773 47.1852C35.3771 47.1852 35.3769 47.1852 35.3767 47.1852C35.3765 47.1852 35.3763 47.1852 35.3761 47.1852C35.3758 47.1852 35.3756 47.1852 35.3754 47.1852C35.3752 47.1852 35.375 47.1852 35.3748 47.1852C35.3746 47.1852 35.3743 47.1852 35.3741 47.1852C35.3739 47.1852 35.3737 47.1852 35.3735 47.1852C35.3733 47.1852 35.3731 47.1852 35.3728 47.1852C35.3726 47.1852 35.3724 47.1852 35.3722 47.1852C35.372 47.1852 35.3718 47.1852 35.3716 47.1852C35.3713 47.1852 35.3711 47.1852 35.3709 47.1852C35.3707 47.1852 35.3705 47.1852 35.3703 47.1852C35.3701 47.1852 35.3698 47.1852 35.3696 47.1852C35.3694 47.1852 35.3692 47.1852 35.369 47.1852C35.3688 47.1852 35.3686 47.1852 35.3684 47.1852C35.3681 47.1852 35.3679 47.1852 35.3677 47.1852C35.3675 47.1852 35.3673 47.1852 35.3671 47.1852C35.3669 47.1852 35.3666 47.1852 35.3664 47.1852C35.3662 47.1852 35.366 47.1852 35.3658 47.1852C35.3656 47.1852 35.3654 47.1852 35.3651 47.1852C35.3649 47.1852 35.3647 47.1852 35.3645 47.1852C35.3643 47.1852 35.3641 47.1852 35.3639 47.1852C35.3636 47.1852 35.3634 47.1852 35.3632 47.1852C35.363 47.1852 35.3628 47.1852 35.3626 47.1852C35.3624 47.1852 35.3622 47.1852 35.3619 47.1852C35.3617 47.1852 35.3615 47.1852 35.3613 47.1852C35.3611 47.1852 35.3609 47.1852 35.3607 47.1852C35.3604 47.1852 35.3602 47.1852 35.36 47.1852C35.3598 47.1852 35.3596 47.1852 35.3594 47.1852C35.3592 47.1852 35.359 47.1852 35.3587 47.1852C35.3585 47.1852 35.3583 47.1852 35.3581 47.1852C35.3579 47.1852 35.3577 47.1852 35.3575 47.1852C35.3572 47.1852 35.357 47.1852 35.3568 47.1852C35.3566 47.1852 35.3564 47.1852 35.3562 47.1852C35.356 47.1852 35.3558 47.1852 35.3555 47.1852C35.3553 47.1852 35.3551 47.1852 35.3549 47.1852C35.3547 47.1852 35.3545 47.1852 35.3543 47.1852C35.354 47.1852 35.3538 47.1852 35.3536 47.1852C35.3534 47.1852 35.3532 47.1852 35.353 47.1852C35.3528 47.1852 35.3526 47.1852 35.3523 47.1852C35.3521 47.1852 35.3519 47.1852 35.3517 47.1852C35.3515 47.1852 35.3513 47.1852 35.3511 47.1852C35.3509 47.1852 35.3506 47.1852 35.3504 47.1852C35.3502 47.1852 35.35 47.1852 35.3498 47.1852C35.3496 47.1852 35.3494 47.1852 35.3492 47.1852C35.3489 47.1852 35.3487 47.1852 35.3485 47.1852C35.3483 47.1852 35.3481 47.1852 35.3479 47.1852C35.3477 47.1852 35.3475 47.1852 35.3472 47.1852C35.347 47.1852 35.3468 47.1852 35.3466 47.1852C35.3464 47.1852 35.3462 47.1852 35.346 47.1852C35.3458 47.1852 35.3455 47.1852 35.3453 47.1852C35.3451 47.1852 35.3449 47.1852 35.3447 47.1852C35.3445 47.1852 35.3443 47.1852 35.3441 47.1852C35.3438 47.1852 35.3436 47.1852 35.3434 47.1852C35.3432 47.1852 35.343 47.1852 35.3428 47.1852C35.3426 47.1852 35.3424 47.1852 35.3421 47.1852C35.3419 47.1852 35.3417 47.1852 35.3415 47.1852C35.3413 47.1852 35.3411 47.1852 35.3409 47.1852C35.3407 47.1852 35.3404 47.1852 35.3402 47.1852C35.34 47.1852 35.3398 47.1852 35.3396 47.1852C35.3394 47.1852 35.3392 47.1852 35.339 47.1852C35.3388 47.1852 35.3385 47.1852 35.3383 47.1852C35.3381 47.1852 35.3379 47.1852 35.3377 47.1852C35.3375 47.1852 35.3373 47.1852 35.3371 47.1852C35.3368 47.1852 35.3366 47.1852 35.3364 47.1852C35.3362 47.1852 35.336 47.1852 35.3358 47.1852C35.3356 47.1852 35.3354 47.1852 35.3351 47.1852C35.3349 47.1852 35.3347 47.1852 35.3345 47.1852C35.3343 47.1852 35.3341 47.1852 35.3339 47.1852C35.3337 47.1852 35.3335 47.1852 35.3332 47.1852C35.333 47.1852 35.3328 47.1852 35.3326 47.1852C35.3324 47.1852 35.3322 47.1852 35.332 47.1852C35.3318 47.1852 35.3316 47.1852 35.3313 47.1852C35.3311 47.1852 35.3309 47.1852 35.3307 47.1852C35.3305 47.1852 35.3303 47.1852 35.3301 47.1852C35.3299 47.1852 35.3296 47.1852 35.3294 47.1852C35.3292 47.1852 35.329 47.1852 35.3288 47.1852C35.3286 47.1852 35.3284 47.1852 35.3282 47.1852C35.328 47.1852 35.3277 47.1852 35.3275 47.1852C35.3273 47.1852 35.3271 47.1852 35.3269 47.1852C35.3267 47.1852 35.3265 47.1852 35.3263 47.1852C35.3261 47.1852 35.3258 47.1852 35.3256 47.1852C35.3254 47.1852 35.3252 47.1852 35.325 47.1852C35.3248 47.1852 35.3246 47.1852 35.3244 47.1852C35.3242 47.1852 35.3239 47.1852 35.3237 47.1852C35.3235 47.1852 35.3233 47.1852 35.3231 47.1852C35.3229 47.1852 35.3227 47.1852 35.3225 47.1852C35.3223 47.1852 35.322 47.1852 35.3218 47.1852C35.3216 47.1852 35.3214 47.1852 35.3212 47.1852C35.321 47.1852 35.3208 47.1852 35.3206 47.1852C35.3204 47.1852 35.3202 47.1852 35.3199 47.1852C35.3197 47.1852 35.3195 47.1852 35.3193 47.1852C35.3191 47.1852 35.3189 47.1852 35.3187 47.1852C35.3185 47.1852 35.3183 47.1852 35.318 47.1852C35.3178 47.1852 35.3176 47.1852 35.3174 47.1852C35.3172 47.1852 35.317 47.1852 35.3168 47.1852C35.3166 47.1852 35.3164 47.1852 35.3161 47.1852C35.3159 47.1852 35.3157 47.1852 35.3155 47.1852C35.3153 47.1852 35.3151 47.1852 35.3149 47.1852C35.3147 47.1852 35.3145 47.1852 35.3143 47.1852C35.314 47.1852 35.3138 47.1852 35.3136 47.1852C35.3134 47.1852 35.3132 47.1852 35.313 47.1852C35.3128 47.1852 35.3126 47.1852 35.3124 47.1852C35.3122 47.1852 35.3119 47.1852 35.3117 47.1852C35.3115 47.1852 35.3113 47.1852 35.3111 47.1852C35.3109 47.1852 35.3107 47.1852 35.3105 47.1852C35.3103 47.1852 35.3101 47.1852 35.3098 47.1852C35.3096 47.1852 35.3094 47.1852 35.3092 47.1852C35.309 47.1852 35.3088 47.1852 35.3086 47.1852C35.3084 47.1852 35.3082 47.1852 35.308 47.1852C35.3077 47.1852 35.3075 47.1852 35.3073 47.1852C35.3071 47.1852 35.3069 47.1852 35.3067 47.1852C35.3065 47.1852 35.3063 47.1852 35.3061 47.1852C35.3059 47.1852 35.3056 47.1852 35.3054 47.1852C35.3052 47.1852 35.305 47.1852 35.3048 47.1852C35.3046 47.1852 35.3044 47.1852 35.3042 47.1852C35.304 47.1852 35.3038 47.1852 35.3035 47.1852C35.3033 47.1852 35.3031 47.1852 35.3029 47.1852C35.3027 47.1852 35.3025 47.1852 35.3023 47.1852C35.3021 47.1852 35.3019 47.1852 35.3017 47.1852C35.3015 47.1852 35.3012 47.1852 35.301 47.1852C35.3008 47.1852 35.3006 47.1852 35.3004 47.1852C35.3002 47.1852 35.3 47.1852 35.2998 47.1852C35.2996 47.1852 35.2994 47.1852 35.2991 47.1852C35.2989 47.1852 35.2987 47.1852 35.2985 47.1852C35.2983 47.1852 35.2981 47.1852 35.2979 47.1852C35.2977 47.1852 35.2975 47.1852 35.2973 47.1852C35.2971 47.1852 35.2968 47.1852 35.2966 47.1852C35.2964 47.1852 35.2962 47.1852 35.296 47.1852C35.2958 47.1852 35.2956 47.1852 35.2954 47.1852C35.2952 47.1852 35.295 47.1852 35.2948 47.1852C35.2945 47.1852 35.2943 47.1852 35.2941 47.1852C35.2939 47.1852 35.2937 47.1852 35.2935 47.1852C35.2933 47.1852 35.2931 47.1852 35.2929 47.1852C35.2927 47.1852 35.2925 47.1852 35.2922 47.1852C35.292 47.1852 35.2918 47.1852 35.2916 47.1852C35.2914 47.1852 35.2912 47.1852 35.291 47.1852C35.2908 47.1852 35.2906 47.1852 35.2904 47.1852C35.2902 47.1852 35.2899 47.1852 35.2897 47.1852C35.2895 47.1852 35.2893 47.1852 35.2891 47.1852C35.2889 47.1852 35.2887 47.1852 35.2885 47.1852C35.2883 47.1852 35.2881 47.1852 35.2879 47.1852C35.2877 47.1852 35.2874 47.1852 35.2872 47.1852C35.287 47.1852 35.2868 47.1852 35.2866 47.1852C35.2864 47.1852 35.2862 47.1852 35.286 47.1852C35.2858 47.1852 35.2856 47.1852 35.2854 47.1852C35.2852 47.1852 35.2849 47.1852 35.2847 47.1852C35.2845 47.1852 35.2843 47.1852 35.2841 47.1852C35.2839 47.1852 35.2837 47.1852 35.2835 47.1852C35.2833 47.1852 35.2831 47.1852 35.2829 47.1852C35.2827 47.1852 35.2824 47.1852 35.2822 47.1852C35.282 47.1852 35.2818 47.1852 35.2816 47.1852C35.2814 47.1852 35.2812 47.1852 35.281 47.1852C35.2808 47.1852 35.2806 47.1852 35.2804 47.1852C35.2802 47.1852 35.2799 47.1852 35.2797 47.1852C35.2795 47.1852 35.2793 47.1852 35.2791 47.1852C35.2789 47.1852 35.2787 47.1852 35.2785 47.1852C35.2783 47.1852 35.2781 47.1852 35.2779 47.1852C35.2777 47.1852 35.2775 47.1852 35.2772 47.1852C35.277 47.1852 35.2768 47.1852 35.2766 47.1852C35.2764 47.1852 35.2762 47.1852 35.276 47.1852C35.2758 47.1852 35.2756 47.1852 35.2754 47.1852C35.2752 47.1852 35.275 47.1852 35.2747 47.1852C35.2745 47.1852 35.2743 47.1852 35.2741 47.1852C35.2739 47.1852 35.2737 47.1852 35.2735 47.1852C35.2733 47.1852 35.2731 47.1852 35.2729 47.1852C35.2727 47.1852 35.2725 47.1852 35.2723 47.1852C35.272 47.1852 35.2718 47.1852 35.2716 47.1852C35.2714 47.1852 35.2712 47.1852 35.271 47.1852C35.2708 47.1852 35.2706 47.1852 35.2704 47.1852C35.2702 47.1852 35.27 47.1852 35.2698 47.1852C35.2696 47.1852 35.2694 47.1852 35.2691 47.1852C35.2689 47.1852 35.2687 47.1852 35.2685 47.1852C35.2683 47.1852 35.2681 47.1852 35.2679 47.1852C35.2677 47.1852 35.2675 47.1852 35.2673 47.1852C35.2671 47.1852 35.2669 47.1852 35.2667 47.1852C35.2665 47.1852 35.2662 47.1852 35.266 47.1852C35.2658 47.1852 35.2656 47.1852 35.2654 47.1852C35.2652 47.1852 35.265 47.1852 35.2648 47.1852C35.2646 47.1852 35.2644 47.1852 35.2642 47.1852C35.264 47.1852 35.2638 47.1852 35.2636 47.1852C35.2633 47.1852 35.2631 47.1852 35.2629 47.1852C35.2627 47.1852 35.2625 47.1852 35.2623 47.1852C35.2621 47.1852 35.2619 47.1852 35.2617 47.1852C35.2615 47.1852 35.2613 47.1852 35.2611 47.1852C35.2609 47.1852 35.2607 47.1852 35.2605 47.1852C35.2602 47.1852 35.26 47.1852 35.2598 47.1852C35.2596 47.1852 35.2594 47.1852 35.2592 47.1852C35.259 47.1852 35.2588 47.1852 35.2586 47.1852C35.2584 47.1852 35.2582 47.1852 35.258 47.1852C35.2578 47.1852 35.2576 47.1852 35.2574 47.1852C35.2571 47.1852 35.2569 47.1852 35.2567 47.1852C35.2565 47.1852 35.2563 47.1852 35.2561 47.1852C35.2559 47.1852 35.2557 47.1852 35.2555 47.1852C35.2553 47.1852 35.2551 47.1852 35.2549 47.1852C35.2547 47.1852 35.2545 47.1852 35.2543 47.1852C35.254 47.1852 35.2538 47.1852 35.2536 47.1852C35.2534 47.1852 35.2532 47.1852 35.253 47.1852C35.2528 47.1852 35.2526 47.1852 35.2524 47.1852C35.2522 47.1852 35.252 47.1852 35.2518 47.1852C35.2516 47.1852 35.2514 47.1852 35.2512 47.1852C35.251 47.1852 35.2507 47.1852 35.2505 47.1852C35.2503 47.1852 35.2501 47.1852 35.2499 47.1852C35.2497 47.1852 35.2495 47.1852 35.2493 47.1852C35.2491 47.1852 35.2489 47.1852 35.2487 47.1852C35.2485 47.1852 35.2483 47.1852 35.2481 47.1852C35.2479 47.1852 35.2477 47.1852 35.2475 47.1852C35.2472 47.1852 35.247 47.1852 35.2468 47.1852C35.2466 47.1852 35.2464 47.1852 35.2462 47.1852C35.246 47.1852 35.2458 47.1852 35.2456 47.1852C35.2454 47.1852 35.2452 47.1852 35.245 47.1852C35.2448 47.1852 35.2446 47.1852 35.2444 47.1852C35.2442 47.1852 35.244 47.1852 35.2437 47.1852C35.2435 47.1852 35.2433 47.1852 35.2431 47.1852C35.2429 47.1852 35.2427 47.1852 35.2425 47.1852C35.2423 47.1852 35.2421 47.1852 35.2419 47.1852C35.2417 47.1852 35.2415 47.1852 35.2413 47.1852C35.2411 47.1852 35.2409 47.1852 35.2407 47.1852C35.2405 47.1852 35.2403 47.1852 35.2401 47.1852C35.2398 47.1852 35.2396 47.1852 35.2394 47.1852C35.2392 47.1852 35.239 47.1852 35.2388 47.1852C35.2386 47.1852 35.2384 47.1852 35.2382 47.1852C35.238 47.1852 35.2378 47.1852 35.2376 47.1852C35.2374 47.1852 35.2372 47.1852 35.237 47.1852C35.2368 47.1852 35.2366 47.1852 35.2364 47.1852C35.2362 47.1852 35.2359 47.1852 35.2357 47.1852C35.2355 47.1852 35.2353 47.1852 35.2351 47.1852C35.2349 47.1852 35.2347 47.1852 35.2345 47.1852C35.2343 47.1852 35.2341 47.1852 35.2339 47.1852C35.2337 47.1852 35.2335 47.1852 35.2333 47.1852C35.2331 47.1852 35.2329 47.1852 35.2327 47.1852C35.2325 47.1852 35.2323 47.1852 35.2321 47.1852C35.2318 47.1852 35.2316 47.1852 35.2314 47.1852C35.2312 47.1852 35.231 47.1852 35.2308 47.1852C35.2306 47.1852 35.2304 47.1852 35.2302 47.1852C35.23 47.1852 35.2298 47.1852 35.2296 47.1852C35.2294 47.1852 35.2292 47.1852 35.229 47.1852C35.2288 47.1852 35.2286 47.1852 35.2284 47.1852C35.2282 47.1852 35.228 47.1852 35.2278 47.1852C35.2275 47.1852 35.2273 47.1852 35.2271 47.1852C35.2269 47.1852 35.2267 47.1852 35.2265 47.1852C35.2263 47.1852 35.2261 47.1852 35.2259 47.1852C35.2257 47.1852 35.2255 47.1852 35.2253 47.1852C35.2251 47.1852 35.2249 47.1852 35.2247 47.1852C35.2245 47.1852 35.2243 47.1852 35.2241 47.1852C35.2239 47.1852 35.2237 47.1852 35.2235 47.1852C35.2233 47.1852 35.2231 47.1852 35.2229 47.1852C35.2226 47.1852 35.2224 47.1852 35.2222 47.1852C35.222 47.1852 35.2218 47.1852 35.2216 47.1852C35.2214 47.1852 35.2212 47.1852 35.221 47.1852C35.2208 47.1852 35.2206 47.1852 35.2204 47.1852C35.2202 47.1852 35.22 47.1852 35.2198 47.1852C35.2196 47.1852 35.2194 47.1852 35.2192 47.1852C35.219 47.1852 35.2188 47.1852 35.2186 47.1852C35.2184 47.1852 35.2182 47.1852 35.218 47.1852C35.2177 47.1852 35.2175 47.1852 35.2173 47.1852C35.2171 47.1852 35.2169 47.1852 35.2167 47.1852C35.2165 47.1852 35.2163 47.1852 35.2161 47.1852C35.2159 47.1852 35.2157 47.1852 35.2155 47.1852C35.2153 47.1852 35.2151 47.1852 35.2149 47.1852C35.2147 47.1852 35.2145 47.1852 35.2143 47.1852C35.2141 47.1852 35.2139 47.1852 35.2137 47.1852C35.2135 47.1852 35.2133 47.1852 35.2131 47.1852C35.2129 47.1852 35.2127 47.1852 35.2125 47.1852C35.2123 47.1852 35.212 47.1852 35.2118 47.1852C35.2116 47.1852 35.2114 47.1852 35.2112 47.1852C35.211 47.1852 35.2108 47.1852 35.2106 47.1852C35.2104 47.1852 35.2102 47.1852 35.21 47.1852C35.2098 47.1852 35.2096 47.1852 35.2094 47.1852C35.2092 47.1852 35.209 47.1852 35.2088 47.1852C35.2086 47.1852 35.2084 47.1852 35.2082 47.1852C35.208 47.1852 35.2078 47.1852 35.2076 47.1852C35.2074 47.1852 35.2072 47.1852 35.207 47.1852C35.2068 47.1852 35.2066 47.1852 35.2064 47.1852C35.2062 47.1852 35.206 47.1852 35.2057 47.1852C35.2055 47.1852 35.2053 47.1852 35.2051 47.1852C35.2049 47.1852 35.2047 47.1852 35.2045 47.1852C35.2043 47.1852 35.2041 47.1852 35.2039 47.1852C35.2037 47.1852 35.2035 47.1852 35.2033 47.1852C35.2031 47.1852 35.2029 47.1852 35.2027 47.1852C35.2025 47.1852 35.2023 47.1852 35.2021 47.1852C35.2019 47.1852 35.2017 47.1852 35.2015 47.1852C35.2013 47.1852 35.2011 47.1852 35.2009 47.1852C35.2007 47.1852 35.2005 47.1852 35.2003 47.1852C35.2001 47.1852 35.1999 47.1852 35.1997 47.1852C35.1995 47.1852 35.1993 47.1852 35.1991 47.1852C35.1989 47.1852 35.1987 47.1852 35.1984 47.1852C35.1982 47.1852 35.198 47.1852 35.1978 47.1852C35.1976 47.1852 35.1974 47.1852 35.1972 47.1852C35.197 47.1852 35.1968 47.1852 35.1966 47.1852C35.1964 47.1852 35.1962 47.1852 35.196 47.1852C35.1958 47.1852 35.1956 47.1852 35.1954 47.1852C35.1952 47.1852 35.195 47.1852 35.1948 47.1852C35.1946 47.1852 35.1944 47.1852 35.1942 47.1852C35.194 47.1852 35.1938 47.1852 35.1936 47.1852C35.1934 47.1852 35.1932 47.1852 35.193 47.1852C35.1928 47.1852 35.1926 47.1852 35.1924 47.1852C35.1922 47.1852 35.192 47.1852 35.1918 47.1852C35.1916 47.1852 35.1914 47.1852 35.1912 47.1852C35.191 47.1852 35.1908 47.1852 35.1906 47.1852C35.1904 47.1852 35.1902 47.1852 35.19 47.1852C35.1898 47.1852 35.1896 47.1852 35.1893 47.1852C35.1891 47.1852 35.1889 47.1852 35.1887 47.1852C35.1885 47.1852 35.1883 47.1852 35.1881 47.1852C35.1879 47.1852 35.1877 47.1852 35.1875 47.1852C35.1873 47.1852 35.1871 47.1852 35.1869 47.1852C35.1867 47.1852 35.1865 47.1852 35.1863 47.1852C35.1861 47.1852 35.1859 47.1852 35.1857 47.1852C35.1855 47.1852 35.1853 47.1852 35.1851 47.1852C35.1849 47.1852 35.1847 47.1852 35.1845 47.1852C35.1843 47.1852 35.1841 47.1852 35.1839 47.1852C35.1837 47.1852 35.1835 47.1852 35.1833 47.1852C35.1831 47.1852 35.1829 47.1852 35.1827 47.1852C35.1825 47.1852 35.1823 47.1852 35.1821 47.1852C35.1819 47.1852 35.1817 47.1852 35.1815 47.1852C35.1813 47.1852 35.1811 47.1852 35.1809 47.1852C35.1807 47.1852 35.1805 47.1852 35.1803 47.1852C35.1801 47.1852 35.1799 47.1852 35.1797 47.1852C35.1795 47.1852 35.1793 47.1852 35.1791 47.1852C35.1789 47.1852 35.1787 47.1852 35.1785 47.1852C35.1783 47.1852 35.1781 47.1852 35.1779 47.1852C35.1777 47.1852 35.1775 47.1852 35.1773 47.1852C35.1771 47.1852 35.1769 47.1852 35.1767 47.1852C35.1765 47.1852 35.1763 47.1852 35.1761 47.1852C35.1759 47.1852 35.1757 47.1852 35.1755 47.1852C35.1753 47.1852 35.1751 47.1852 35.1749 47.1852C35.1747 47.1852 35.1744 47.1852 35.1742 47.1852C35.174 47.1852 35.1738 47.1852 35.1736 47.1852C35.1734 47.1852 35.1732 47.1852 35.173 47.1852C35.1728 47.1852 35.1726 47.1852 35.1724 47.1852C35.1722 47.1852 35.172 47.1852 35.1718 47.1852C35.1716 47.1852 35.1714 47.1852 35.1712 47.1852C35.171 47.1852 35.1708 47.1852 35.1706 47.1852C35.1704 47.1852 35.1702 47.1852 35.17 47.1852C35.1698 47.1852 35.1696 47.1852 35.1694 47.1852C35.1692 47.1852 35.169 47.1852 35.1688 47.1852C35.1686 47.1852 35.1684 47.1852 35.1682 47.1852C35.168 47.1852 35.1678 47.1852 35.1676 47.1852C35.1674 47.1852 35.1672 47.1852 35.167 47.1852C35.1668 47.1852 35.1666 47.1852 35.1664 47.1852C35.1662 47.1852 35.166 47.1852 35.1658 47.1852C35.1656 47.1852 35.1654 47.1852 35.1652 47.1852C35.165 47.1852 35.1648 47.1852 35.1646 47.1852C35.1644 47.1852 35.1642 47.1852 35.164 47.1852C35.1638 47.1852 35.1636 47.1852 35.1634 47.1852C35.1632 47.1852 35.163 47.1852 35.1628 47.1852C35.1626 47.1852 35.1624 47.1852 35.1622 47.1852C35.162 47.1852 35.1618 47.1852 35.1616 47.1852C35.1614 47.1852 35.1612 47.1852 35.161 47.1852C35.1608 47.1852 35.1606 47.1852 35.1604 47.1852C35.1602 47.1852 35.16 47.1852 35.1598 47.1852C35.1596 47.1852 35.1594 47.1852 35.1592 47.1852C35.159 47.1852 35.1588 47.1852 35.1586 47.1852C35.1584 47.1852 35.1582 47.1852 35.158 47.1852C35.1578 47.1852 35.1576 47.1852 35.1574 47.1852C35.1572 47.1852 35.157 47.1852 35.1568 47.1852C35.1566 47.1852 35.1564 47.1852 35.1562 47.1852C35.156 47.1852 35.1558 47.1852 35.1556 47.1852C35.1554 47.1852 35.1552 47.1852 35.155 47.1852C35.1548 47.1852 35.1546 47.1852 35.1544 47.1852C35.1542 47.1852 35.154 47.1852 35.1538 47.1852C35.1536 47.1852 35.1534 47.1852 35.1532 47.1852C35.153 47.1852 35.1528 47.1852 35.1526 47.1852C35.1524 47.1852 35.1522 47.1852 35.152 47.1852C35.1518 47.1852 35.1516 47.1852 35.1514 47.1852C35.1512 47.1852 35.151 47.1852 35.1508 47.1852C35.1506 47.1852 35.1504 47.1852 35.1502 47.1852C35.1501 47.1852 35.1499 47.1852 35.1497 47.1852C35.1495 47.1852 35.1493 47.1852 35.1491 47.1852C35.1489 47.1852 35.1487 47.1852 35.1485 47.1852C35.1483 47.1852 35.1481 47.1852 35.1479 47.1852C35.1477 47.1852 35.1475 47.1852 35.1473 47.1852C35.1471 47.1852 35.1469 47.1852 35.1467 47.1852C35.1465 47.1852 35.1463 47.1852 35.1461 47.1852C35.1459 47.1852 35.1457 47.1852 35.1455 47.1852C35.1453 47.1852 35.1451 47.1852 35.1449 47.1852C35.1447 47.1852 35.1445 47.1852 35.1443 47.1852C35.1441 47.1852 35.1439 47.1852 35.1437 47.1852C35.1435 47.1852 35.1433 47.1852 35.1431 47.1852C35.1429 47.1852 35.1427 47.1852 35.1425 47.1852C35.1423 47.1852 35.1421 47.1852 35.1419 47.1852C35.1417 47.1852 35.1415 47.1852 35.1413 47.1852C35.1411 47.1852 35.1409 47.1852 35.1407 47.1852C35.1405 47.1852 35.1403 47.1852 35.1401 47.1852C35.1399 47.1852 35.1397 47.1852 35.1395 47.1852C35.1393 47.1852 35.1391 47.1852 35.1389 47.1852C35.1387 47.1852 35.1385 47.1852 35.1383 47.1852C35.1381 47.1852 35.1379 47.1852 35.1377 47.1852C35.1375 47.1852 35.1373 47.1852 35.1371 47.1852C35.1369 47.1852 35.1367 47.1852 35.1365 47.1852C35.1363 47.1852 35.1361 47.1852 35.1359 47.1852C35.1357 47.1852 35.1356 47.1852 35.1354 47.1852C35.1352 47.1852 35.135 47.1852 35.1348 47.1852C35.1346 47.1852 35.1344 47.1852 35.1342 47.1852C35.134 47.1852 35.1338 47.1852 35.1336 47.1852C35.1334 47.1852 35.1332 47.1852 35.133 47.1852C35.1328 47.1852 35.1326 47.1852 35.1324 47.1852C35.1322 47.1852 35.132 47.1852 35.1318 47.1852C35.1316 47.1852 35.1314 47.1852 35.1312 47.1852C35.131 47.1852 35.1308 47.1852 35.1306 47.1852C35.1304 47.1852 35.1302 47.1852 35.13 47.1852C35.1298 47.1852 35.1296 47.1852 35.1294 47.1852C35.1292 47.1852 35.129 47.1852 35.1288 47.1852C35.1286 47.1852 35.1284 47.1852 35.1282 47.1852C35.128 47.1852 35.1278 47.1852 35.1276 47.1852C35.1274 47.1852 35.1272 47.1852 35.127 47.1852C35.1268 47.1852 35.1266 47.1852 35.1265 47.1852C35.1263 47.1852 35.1261 47.1852 35.1259 47.1852C35.1257 47.1852 35.1255 47.1852 35.1253 47.1852C35.1251 47.1852 35.1249 47.1852 35.1247 47.1852C35.1245 47.1852 35.1243 47.1852 35.1241 47.1852C35.1239 47.1852 35.1237 47.1852 35.1235 47.1852C35.1233 47.1852 35.1231 47.1852 35.1229 47.1852C35.1227 47.1852 35.1225 47.1852 35.1223 47.1852C35.1221 47.1852 35.1219 47.1852 35.1217 47.1852C35.1215 47.1852 35.1213 47.1852 35.1211 47.1852C35.1209 47.1852 35.1207 47.1852 35.1205 47.1852C35.1203 47.1852 35.1201 47.1852 35.1199 47.1852C35.1197 47.1852 35.1195 47.1852 35.1194 47.1852C35.1192 47.1852 35.119 47.1852 35.1188 47.1852C35.1186 47.1852 35.1184 47.1852 35.1182 47.1852C35.118 47.1852 35.1178 47.1852 35.1176 47.1852C35.1174 47.1852 35.1172 47.1852 35.117 47.1852C35.1168 47.1852 35.1166 47.1852 35.1164 47.1852C35.1162 47.1852 35.116 47.1852 35.1158 47.1852C35.1156 47.1852 35.1154 47.1852 35.1152 47.1852C35.115 47.1852 35.1148 47.1852 35.1146 47.1852C35.1144 47.1852 35.1142 47.1852 35.114 47.1852C35.1138 47.1852 35.1136 47.1852 35.1134 47.1852C35.1133 47.1852 35.1131 47.1852 35.1129 47.1852C35.1127 47.1852 35.1125 47.1852 35.1123 47.1852C35.1121 47.1852 35.1119 47.1852 35.1117 47.1852C35.1115 47.1852 35.1113 47.1852 35.1111 47.1852C35.1109 47.1852 35.1107 47.1852 35.1105 47.1852C35.1103 47.1852 35.1101 47.1852 35.1099 47.1852C35.1097 47.1852 35.1095 47.1852 35.1093 47.1852C35.1091 47.1852 35.1089 47.1852 35.1087 47.1852C35.1085 47.1852 35.1083 47.1852 35.1081 47.1852C35.108 47.1852 35.1078 47.1852 35.1076 47.1852C35.1074 47.1852 35.1072 47.1852 35.107 47.1852C35.1068 47.1852 35.1066 47.1852 35.1064 47.1852C35.1062 47.1852 35.106 47.1852 35.1058 47.1852C35.1056 47.1852 35.1054 47.1852 35.1052 47.1852C35.105 47.1852 35.1048 47.1852 35.1046 47.1852C35.1044 47.1852 35.1042 47.1852 35.104 47.1852C35.1038 47.1852 35.1036 47.1852 35.1034 47.1852C35.1032 47.1852 35.1031 47.1852 35.1029 47.1852C35.1027 47.1852 35.1025 47.1852 35.1023 47.1852C35.1021 47.1852 35.1019 47.1852 35.1017 47.1852C35.1015 47.1852 35.1013 47.1852 35.1011 47.1852C35.1009 47.1852 35.1007 47.1852 35.1005 47.1852C35.1003 47.1852 35.1001 47.1852 35.0999 47.1852C35.0997 47.1852 35.0995 47.1852 35.0993 47.1852C35.0991 47.1852 35.0989 47.1852 35.0987 47.1852C35.0986 47.1852 35.0984 47.1852 35.0982 47.1852C35.098 47.1852 35.0978 47.1852 35.0976 47.1852C35.0974 47.1852 35.0972 47.1852 35.097 47.1852C35.0968 47.1852 35.0966 47.1852 35.0964 47.1852C35.0962 47.1852 35.096 47.1852 35.0958 47.1852C35.0956 47.1852 35.0954 47.1852 35.0952 47.1852C35.095 47.1852 35.0948 47.1852 35.0946 47.1852C35.0945 47.1852 35.0943 47.1852 35.0941 47.1852C35.0939 47.1852 35.0937 47.1852 35.0935 47.1852C35.0933 47.1852 35.0931 47.1852 35.0929 47.1852C35.0927 47.1852 35.0925 47.1852 35.0923 47.1852C35.0921 47.1852 35.0919 47.1852 35.0917 47.1852C35.0915 47.1852 35.0913 47.1852 35.0911 47.1852C35.0909 47.1852 35.0907 47.1852 35.0905 47.1852C35.0904 47.1852 35.0902 47.1852 35.09 47.1852C35.0898 47.1852 35.0896 47.1852 35.0894 47.1852C35.0892 47.1852 35.089 47.1852 35.0888 47.1852C35.0886 47.1852 35.0884 47.1852 35.0882 47.1852C35.088 47.1852 35.0878 47.1852 35.0876 47.1852C35.0874 47.1852 35.0872 47.1852 35.087 47.1852C35.0868 47.1852 35.0867 47.1852 35.0865 47.1852C35.0863 47.1852 35.0861 47.1852 35.0859 47.1852C35.0857 47.1852 35.0855 47.1852 35.0853 47.1852C35.0851 47.1852 35.0849 47.1852 35.0847 47.1852C35.0845 47.1852 35.0843 47.1852 35.0841 47.1852C35.0839 47.1852 35.0837 47.1852 35.0835 47.1852C35.0833 47.1852 35.0832 47.1852 35.083 47.1852C35.0828 47.1852 35.0826 47.1852 35.0824 47.1852C35.0822 47.1852 35.082 47.1852 35.0818 47.1852C35.0816 47.1852 35.0814 47.1852 35.0812 47.1852C35.081 47.1852 35.0808 47.1852 35.0806 47.1852C35.0804 47.1852 35.0802 47.1852 35.08 47.1852C35.0799 47.1852 35.0797 47.1852 35.0795 47.1852C35.0793 47.1852 35.0791 47.1852 35.0789 47.1852C35.0787 47.1852 35.0785 47.1852 35.0783 47.1852C35.0781 47.1852 35.0779 47.1852 35.0777 47.1852C35.0775 47.1852 35.0773 47.1852 35.0771 47.1852C35.0769 47.1852 35.0767 47.1852 35.0766 47.1852C35.0764 47.1852 35.0762 47.1852 35.076 47.1852C35.0758 47.1852 35.0756 47.1852 35.0754 47.1852C35.0752 47.1852 35.075 47.1852 35.0748 47.1852C35.0746 47.1852 35.0744 47.1852 35.0742 47.1852C35.074 47.1852 35.0738 47.1852 35.0736 47.1852C35.0735 47.1852 35.0733 47.1852 35.0731 47.1852C35.0729 47.1852 35.0727 47.1852 35.0725 47.1852C35.0723 47.1852 35.0721 47.1852 35.0719 47.1852C35.0717 47.1852 35.0715 47.1852 35.0713 47.1852C35.0711 47.1852 35.0709 47.1852 35.0707 47.1852C35.0705 47.1852 35.0704 47.1852 35.0702 47.1852C35.07 47.1852 35.0698 47.1852 35.0696 47.1852C35.0694 47.1852 35.0692 47.1852 35.069 47.1852V47.6825ZM40.3155 52H39.8182V52.4973H40.3155V52ZM40.3155 43.86V43.3627H39.8182V43.86H40.3155ZM46.03 43.86H46.5273V43.3627H46.03V43.86ZM46.03 45.29V45.7873H46.5273V45.29H46.03ZM42.081 45.29V44.7927H41.5837V45.29H42.081ZM42.081 50.57H41.5837V51.0673H42.081V50.57ZM46.085 50.57H46.5823V50.0727H46.085V50.57ZM46.085 52V52.4973H46.5823V52H46.085ZM41.377 48.5515H40.8797V49.0488H41.377V48.5515ZM41.377 47.1215V46.6242H40.8797V47.1215H41.377ZM45.469 47.1215H45.9663V46.6242H45.469V47.1215ZM45.469 48.5515V49.0488H45.9663V48.5515H45.469ZM40.3155 52H40.8128V43.86H40.3155H39.8182V52H40.3155ZM40.3155 43.86V44.3573H46.03V43.86V43.3627H40.3155V43.86ZM46.03 43.86H45.5327V45.29H46.03H46.5273V43.86H46.03ZM46.03 45.29V44.7927H42.081V45.29V45.7873H46.03V45.29ZM42.081 45.29H41.5837V50.57H42.081H42.5783V45.29H42.081ZM42.081 50.57V51.0673H46.085V50.57V50.0727H42.081V50.57ZM46.085 50.57H45.5877V52H46.085H46.5823V50.57H46.085ZM46.085 52V51.5027H40.3155V52V52.4973H46.085V52ZM41.377 48.5515H41.8743V47.1215H41.377H40.8797V48.5515H41.377ZM41.377 47.1215V47.6188H45.469V47.1215V46.6242H41.377V47.1215ZM45.469 47.1215H44.9717V48.5515H45.469H45.9663V47.1215H45.469ZM45.469 48.5515V48.0542H41.377V48.5515V49.0488H45.469V48.5515ZM46.3641 52L45.8909 51.8472L45.6809 52.4973H46.3641V52ZM48.9931 43.86V43.3627H48.6311L48.5199 43.7072L48.9931 43.86ZM51.5946 43.86L52.0678 43.7072L51.9566 43.3627H51.5946V43.86ZM54.2236 52V52.4973H54.9068L54.6968 51.8472L54.2236 52ZM52.4636 52L51.9885 52.147L52.0969 52.4973H52.4636V52ZM50.1866 44.641V44.1437H49.5122L49.7115 44.788L50.1866 44.641ZM50.3736 44.641L50.8488 44.7877L51.0476 44.1437H50.3736V44.641ZM48.1021 52V52.4973H48.4691L48.5773 52.1467L48.1021 52ZM48.1901 49.8275L47.71 49.6977L47.5406 50.3248H48.1901V49.8275ZM48.5751 48.403V47.9057H48.1944L48.095 48.2732L48.5751 48.403ZM52.0071 48.403L52.4877 48.275L52.3893 47.9057H52.0071V48.403ZM52.3866 49.8275V50.3248H53.0338L52.8672 49.6995L52.3866 49.8275ZM46.3641 52L46.8373 52.1528L49.4663 44.0128L48.9931 43.86L48.5199 43.7072L45.8909 51.8472L46.3641 52ZM48.9931 43.86V44.3573H51.5946V43.86V43.3627H48.9931V43.86ZM51.5946 43.86L51.1214 44.0128L53.7504 52.1528L54.2236 52L54.6968 51.8472L52.0678 43.7072L51.5946 43.86ZM54.2236 52V51.5027H52.4636V52V52.4973H54.2236V52ZM52.4636 52L52.9387 51.853L50.6617 44.494L50.1866 44.641L49.7115 44.788L51.9885 52.147L52.4636 52ZM50.1866 44.641V45.1383H50.3736V44.641V44.1437H50.1866V44.641ZM50.3736 44.641L49.8984 44.4943L47.6269 51.8533L48.1021 52L48.5773 52.1467L50.8488 44.7877L50.3736 44.641ZM48.1021 52V51.5027H46.3641V52V52.4973H48.1021V52ZM48.1901 49.8275L48.6702 49.9573L49.0552 48.5328L48.5751 48.403L48.095 48.2732L47.71 49.6977L48.1901 49.8275ZM48.5751 48.403V48.9003H52.0071V48.403V47.9057H48.5751V48.403ZM52.0071 48.403L51.5266 48.531L51.9061 49.9555L52.3866 49.8275L52.8672 49.6995L52.4877 48.275L52.0071 48.403ZM52.3866 49.8275V49.3302H48.1901V49.8275V50.3248H52.3866V49.8275ZM55.0323 52H54.535V52.4973H55.0323V52ZM55.0323 43.86V43.3627H54.535V43.86H55.0323ZM56.8198 43.86H57.3171V43.3627H56.8198V43.86ZM56.8198 50.515H56.3225V51.0123H56.8198V50.515ZM60.5598 50.515H61.0571V50.0177H60.5598V50.515ZM60.5598 52V52.4973H61.0571V52H60.5598ZM55.0323 52H55.5296V43.86H55.0323H54.535V52H55.0323ZM55.0323 43.86V44.3573H56.8198V43.86V43.3627H55.0323V43.86ZM56.8198 43.86H56.3225V50.515H56.8198H57.3171V43.86H56.8198ZM56.8198 50.515V51.0123H60.5598V50.515V50.0177H56.8198V50.515ZM60.5598 50.515H60.0625V52H60.5598H61.0571V50.515H60.5598ZM60.5598 52V51.5027H55.0323V52V52.4973H60.5598V52ZM32.7315 65H32.2342V65.4973H32.7315V65ZM32.7315 56.86V56.3627H32.2342V56.86H32.7315ZM38.446 56.86H38.9433V56.3627H38.446V56.86ZM38.446 58.29V58.7873H38.9433V58.29H38.446ZM34.497 58.29V57.7927H33.9997V58.29H34.497ZM34.497 63.57H33.9997V64.0673H34.497V63.57ZM38.501 63.57H38.9983V63.0727H38.501V63.57ZM38.501 65V65.4973H38.9983V65H38.501ZM33.793 61.5515H33.2957V62.0488H33.793V61.5515ZM33.793 60.1215V59.6242H33.2957V60.1215H33.793ZM37.885 60.1215H38.3823V59.6242H37.885V60.1215ZM37.885 61.5515V62.0488H38.3823V61.5515H37.885ZM32.7315 65H33.2288V56.86H32.7315H32.2342V65H32.7315ZM32.7315 56.86V57.3573H38.446V56.86V56.3627H32.7315V56.86ZM38.446 56.86H37.9487V58.29H38.446H38.9433V56.86H38.446ZM38.446 58.29V57.7927H34.497V58.29V58.7873H38.446V58.29ZM34.497 58.29H33.9997V63.57H34.497H34.9943V58.29H34.497ZM34.497 63.57V64.0673H38.501V63.57V63.0727H34.497V63.57ZM38.501 63.57H38.0037V65H38.501H38.9983V63.57H38.501ZM38.501 65V64.5027H32.7315V65V65.4973H38.501V65ZM33.793 61.5515H34.2903V60.1215H33.793H33.2957V61.5515H33.793ZM33.793 60.1215V60.6188H37.885V60.1215V59.6242H33.793V60.1215ZM37.885 60.1215H37.3877V61.5515H37.885H38.3823V60.1215H37.885ZM37.885 61.5515V61.0542H33.793V61.5515V62.0488H37.885V61.5515ZM40.4805 65.011L40.5578 64.5197L40.554 64.5192L40.4805 65.011ZM39.3915 64.758H38.8942V65.1177L39.2358 65.2303L39.3915 64.758ZM39.3915 63.306L39.5487 62.8342L38.8942 62.616V63.306H39.3915ZM40.1285 63.504L40.0257 63.9906L40.0323 63.9919L40.1285 63.504ZM40.9095 63.625L40.8538 64.1192L40.8546 64.1193L40.9095 63.625ZM42.818 63.4215L43.1101 63.824L43.1143 63.8209L42.818 63.4215ZM42.906 62.1235L42.5803 62.4993L42.5844 62.5028L42.906 62.1235ZM41.9765 61.733L41.8518 62.2144L41.8522 62.2145L41.9765 61.733ZM41.3605 61.5735L41.4851 61.0921L41.4823 61.0913L41.3605 61.5735ZM39.7435 60.7375L39.3833 61.0804L39.3867 61.0839L39.7435 60.7375ZM40.0405 57.41L39.7364 57.0165L39.7352 57.0174L40.0405 57.41ZM43.632 56.8215L43.5663 57.3145L43.5723 57.3152L43.632 56.8215ZM44.5175 56.992H45.0148V56.6169L44.6541 56.5138L44.5175 56.992ZM44.5175 58.444L44.3703 58.919L45.0148 59.1187V58.444H44.5175ZM41.674 58.312L41.8207 58.7872L41.8271 58.7852L41.674 58.312ZM41.135 58.642L40.7408 58.3387L40.7359 58.3453L41.135 58.642ZM41.1955 59.698L40.8578 60.0631L40.8578 60.0631L41.1955 59.698ZM42.0205 60.0665L41.8896 60.5463L41.8948 60.5477L42.0205 60.0665ZM42.631 60.226L42.5053 60.7072L42.5135 60.7092L42.631 60.226ZM43.9345 60.7375L43.6713 61.1595L43.6746 61.1615L43.9345 60.7375ZM44.688 61.513L44.2474 61.7438L44.2508 61.75L44.688 61.513ZM44.545 63.944L44.1355 63.6618L44.1349 63.6626L44.545 63.944ZM43.4285 64.8075L43.6156 65.2683L43.6185 65.2671L43.4285 64.8075ZM41.663 65.1045V64.6072C41.2971 64.6072 40.9288 64.5781 40.5578 64.5197L40.4805 65.011L40.4032 65.5023C40.8242 65.5685 41.2442 65.6018 41.663 65.6018V65.1045ZM40.4805 65.011L40.554 64.5192C40.1861 64.4641 39.8509 64.3858 39.5472 64.2857L39.3915 64.758L39.2358 65.2303C39.5994 65.3502 39.9902 65.4405 40.4069 65.5028L40.4805 65.011ZM39.3915 64.758H39.8888V63.306H39.3915H38.8942V64.758H39.3915ZM39.3915 63.306L39.2342 63.7778C39.4846 63.8613 39.7486 63.932 40.0257 63.9906L40.1285 63.504L40.2313 63.0174C39.9877 62.966 39.7603 62.9047 39.5487 62.8342L39.3915 63.306ZM40.1285 63.504L40.0323 63.9919C40.3059 64.0459 40.5797 64.0883 40.8538 64.1192L40.9095 63.625L40.9652 63.1308C40.7186 63.103 40.4718 63.0648 40.2247 63.0161L40.1285 63.504ZM40.9095 63.625L40.8546 64.1193C41.1345 64.1504 41.4023 64.1663 41.6575 64.1663V63.669V63.1717C41.4434 63.1717 41.2125 63.1583 40.9644 63.1307L40.9095 63.625ZM41.6575 63.669V64.1663C42.225 64.1663 42.7487 64.0863 43.1101 63.824L42.818 63.4215L42.5259 63.019C42.4326 63.0867 42.1827 63.1717 41.6575 63.1717V63.669ZM42.818 63.4215L43.1143 63.8209C43.477 63.5518 43.6563 63.1642 43.6563 62.7175H43.159H42.6617C42.6617 62.8722 42.6137 62.9539 42.5217 63.0221L42.818 63.4215ZM43.159 62.7175H43.6563C43.6563 62.3419 43.5245 61.9959 43.2276 61.7442L42.906 62.1235L42.5844 62.5028C42.6248 62.5371 42.6617 62.5871 42.6617 62.7175H43.159ZM42.906 62.1235L43.2317 61.7477C42.9726 61.5232 42.5632 61.3708 42.1008 61.2515L41.9765 61.733L41.8522 62.2145C42.2991 62.3299 42.5093 62.4378 42.5803 62.4993L42.906 62.1235ZM41.9765 61.733L42.1011 61.2516L41.4851 61.0921L41.3605 61.5735L41.2358 62.0549L41.8518 62.2144L41.9765 61.733ZM41.3605 61.5735L41.4823 61.0913C40.8266 60.9257 40.3822 60.6814 40.1003 60.3911L39.7435 60.7375L39.3867 61.0839C39.8381 61.5489 40.4717 61.8619 41.2387 62.0557L41.3605 61.5735ZM39.7435 60.7375L40.1037 60.3946C39.8446 60.1224 39.6963 59.7512 39.6963 59.2305H39.199H38.7017C38.7017 59.9564 38.9164 60.5899 39.3833 61.0804L39.7435 60.7375ZM39.199 59.2305H39.6963C39.6963 58.5901 39.9184 58.135 40.3458 57.8026L40.0405 57.41L39.7352 57.0174C39.0406 57.5577 38.7017 58.3162 38.7017 59.2305H39.199ZM40.0405 57.41L40.3446 57.8035C40.7842 57.4638 41.5037 57.2528 42.587 57.2528V56.7555V56.2582C41.4042 56.2582 40.4261 56.4835 39.7364 57.0165L40.0405 57.41ZM42.587 56.7555V57.2528C42.9338 57.2528 43.2601 57.2736 43.5663 57.3144L43.632 56.8215L43.6977 56.3286C43.3439 56.2814 42.9735 56.2582 42.587 56.2582V56.7555ZM43.632 56.8215L43.5723 57.3152C43.8863 57.3532 44.1549 57.4056 44.3809 57.4702L44.5175 56.992L44.6541 56.5138C44.3668 56.4317 44.045 56.3705 43.6917 56.3278L43.632 56.8215ZM44.5175 56.992H44.0202V58.444H44.5175H45.0148V56.992H44.5175ZM44.5175 58.444L44.6647 57.969C44.3743 57.879 44.0576 57.8114 43.7164 57.7644L43.6485 58.257L43.5805 58.7496C43.8774 58.7906 44.14 58.8477 44.3703 58.919L44.5175 58.444ZM43.6485 58.257L43.7164 57.7644C43.3749 57.7172 43.0313 57.6937 42.686 57.6937V58.191V58.6883C42.986 58.6883 43.2841 58.7088 43.5805 58.7496L43.6485 58.257ZM42.686 58.191V57.6937C42.2368 57.6937 41.8408 57.7354 41.5209 57.8388L41.674 58.312L41.8271 58.7852C42.0059 58.7273 42.2845 58.6883 42.686 58.6883V58.191ZM41.674 58.312L41.5272 57.8368C41.2216 57.9312 40.9358 58.0852 40.7408 58.3388L41.135 58.642L41.5292 58.9452C41.5541 58.9128 41.6277 58.8468 41.8207 58.7872L41.674 58.312ZM41.135 58.642L40.7359 58.3453C40.5625 58.5785 40.4782 58.8487 40.4782 59.137H40.9755H41.4728C41.4728 59.0513 41.4948 58.9915 41.5341 58.9387L41.135 58.642ZM40.9755 59.137H40.4782C40.4782 59.4849 40.5898 59.8152 40.8578 60.0631L41.1955 59.698L41.5332 59.3329C41.5078 59.3094 41.4728 59.2658 41.4728 59.137H40.9755ZM41.1955 59.698L40.8578 60.0631C41.0987 60.286 41.4759 60.4334 41.8896 60.5463L42.0205 60.0665L42.1513 59.5867C41.7584 59.4796 41.5856 59.3814 41.5332 59.3329L41.1955 59.698ZM42.0205 60.0665L41.8948 60.5477L42.5053 60.7072L42.631 60.226L42.7567 59.7448L42.1462 59.5853L42.0205 60.0665ZM42.631 60.226L42.5135 60.7092C43.0069 60.8292 43.388 60.9828 43.6713 61.1595L43.9345 60.7375L44.1976 60.3155C43.799 60.0669 43.3111 59.8795 42.7484 59.7428L42.631 60.226ZM43.9345 60.7375L43.6746 61.1615C43.9508 61.3308 44.1337 61.5266 44.2475 61.7438L44.688 61.513L45.1285 61.2822C44.9196 60.8834 44.6002 60.5622 44.1944 60.3135L43.9345 60.7375ZM44.688 61.513L44.2508 61.75C44.3689 61.9679 44.4382 62.2442 44.4382 62.5965H44.9355H45.4328C45.4328 62.1128 45.337 61.6667 45.1252 61.276L44.688 61.513ZM44.9355 62.5965H44.4382C44.4382 63.0305 44.3311 63.378 44.1355 63.6618L44.545 63.944L44.9544 64.2262C45.2795 63.7547 45.4328 63.2039 45.4328 62.5965H44.9355ZM44.545 63.944L44.1349 63.6626C43.9412 63.9449 43.6519 64.1769 43.2384 64.3479L43.4285 64.8075L43.6185 65.2671C44.1804 65.0347 44.6354 64.6911 44.955 64.2254L44.545 63.944ZM43.4285 64.8075L43.2414 64.3467C42.8284 64.5144 42.3071 64.6072 41.663 64.6072V65.1045V65.6018C42.3976 65.6018 43.0532 65.4966 43.6156 65.2683L43.4285 64.8075ZM47.5199 65H47.0226V65.4973H47.5199V65ZM47.5199 58.345H48.0172V57.8477H47.5199V58.345ZM44.9514 58.345H44.4541V58.8423H44.9514V58.345ZM44.9514 56.86V56.3627H44.4541V56.86H44.9514ZM51.8759 56.86H52.3732V56.3627H51.8759V56.86ZM51.8759 58.345V58.8423H52.3732V58.345H51.8759ZM49.3129 58.345V57.8477H48.8156V58.345H49.3129ZM49.3129 65V65.4973H49.8102V65H49.3129ZM47.5199 65H48.0172V58.345H47.5199H47.0226V65H47.5199ZM47.5199 58.345V57.8477H44.9514V58.345V58.8423H47.5199V58.345ZM44.9514 58.345H45.4487V56.86H44.9514H44.4541V58.345H44.9514ZM44.9514 56.86V57.3573H51.8759V56.86V56.3627H44.9514V56.86ZM51.8759 56.86H51.3786V58.345H51.8759H52.3732V56.86H51.8759ZM51.8759 58.345V57.8477H49.3129V58.345V58.8423H51.8759V58.345ZM49.3129 58.345H48.8156V65H49.3129H49.8102V58.345H49.3129ZM49.3129 65V64.5027H47.5199V65V65.4973H49.3129V65ZM51.0799 65L50.6067 64.8472L50.3967 65.4973H51.0799V65ZM53.7089 56.86V56.3627H53.3469L53.2357 56.7072L53.7089 56.86ZM56.3104 56.86L56.7837 56.7072L56.6724 56.3627H56.3104V56.86ZM58.9394 65V65.4973H59.6226L59.4127 64.8472L58.9394 65ZM57.1794 65L56.7043 65.147L56.8127 65.4973H57.1794V65ZM54.9024 57.641V57.1437H54.228L54.4273 57.788L54.9024 57.641ZM55.0894 57.641L55.5646 57.7877L55.7634 57.1437H55.0894V57.641ZM52.8179 65V65.4973H53.1849L53.2931 65.1467L52.8179 65ZM52.9059 62.8275L52.4258 62.6977L52.2564 63.3248H52.9059V62.8275ZM53.2909 61.403V60.9057H52.9102L52.8108 61.2732L53.2909 61.403ZM56.7229 61.403L57.2035 61.275L57.1051 60.9057H56.7229V61.403ZM57.1024 62.8275V63.3248H57.7496L57.583 62.6995L57.1024 62.8275ZM51.0799 65L51.5532 65.1528L54.1822 57.0128L53.7089 56.86L53.2357 56.7072L50.6067 64.8472L51.0799 65ZM53.7089 56.86V57.3573H56.3104V56.86V56.3627H53.7089V56.86ZM56.3104 56.86L55.8372 57.0128L58.4662 65.1528L58.9394 65L59.4127 64.8472L56.7837 56.7072L56.3104 56.86ZM58.9394 65V64.5027H57.1794V65V65.4973H58.9394V65ZM57.1794 65L57.6545 64.853L55.3775 57.494L54.9024 57.641L54.4273 57.788L56.7043 65.147L57.1794 65ZM54.9024 57.641V58.1383H55.0894V57.641V57.1437H54.9024V57.641ZM55.0894 57.641L54.6142 57.4943L52.3427 64.8533L52.8179 65L53.2931 65.1467L55.5646 57.7877L55.0894 57.641ZM52.8179 65V64.5027H51.0799V65V65.4973H52.8179V65ZM52.9059 62.8275L53.386 62.9573L53.771 61.5328L53.2909 61.403L52.8108 61.2732L52.4258 62.6977L52.9059 62.8275ZM53.2909 61.403V61.9003H56.7229V61.403V60.9057H53.2909V61.403ZM56.7229 61.403L56.2424 61.531L56.6219 62.9555L57.1024 62.8275L57.583 62.6995L57.2035 61.275L56.7229 61.403ZM57.1024 62.8275V62.3302H52.9059V62.8275V63.3248H57.1024V62.8275ZM60.7113 65H60.214V65.4973H60.7113V65ZM60.7113 58.345H61.2086V57.8477H60.7113V58.345ZM58.1428 58.345H57.6455V58.8423H58.1428V58.345ZM58.1428 56.86V56.3627H57.6455V56.86H58.1428ZM65.0673 56.86H65.5646V56.3627H65.0673V56.86ZM65.0673 58.345V58.8423H65.5646V58.345H65.0673ZM62.5043 58.345V57.8477H62.007V58.345H62.5043ZM62.5043 65V65.4973H63.0016V65H62.5043ZM60.7113 65H61.2086V58.345H60.7113H60.214V65H60.7113ZM60.7113 58.345V57.8477H58.1428V58.345V58.8423H60.7113V58.345ZM58.1428 58.345H58.6401V56.86H58.1428H57.6455V58.345H58.1428ZM58.1428 56.86V57.3573H65.0673V56.86V56.3627H58.1428V56.86ZM65.0673 56.86H64.57V58.345H65.0673H65.5646V56.86H65.0673ZM65.0673 58.345V57.8477H62.5043V58.345V58.8423H65.0673V58.345ZM62.5043 58.345H62.007V65H62.5043H63.0016V58.345H62.5043ZM62.5043 65V64.5027H60.7113V65V65.4973H62.5043V65ZM65.8711 65H65.3738V65.4973H65.8711V65ZM65.8711 56.86V56.3627H65.3738V56.86H65.8711ZM71.5856 56.86H72.083V56.3627H71.5856V56.86ZM71.5856 58.29V58.7873H72.083V58.29H71.5856ZM67.6366 58.29V57.7927H67.1393V58.29H67.6366ZM67.6366 63.57H67.1393V64.0673H67.6366V63.57ZM71.6406 63.57H72.138V63.0727H71.6406V63.57ZM71.6406 65V65.4973H72.138V65H71.6406ZM66.9326 61.5515H66.4353V62.0488H66.9326V61.5515ZM66.9326 60.1215V59.6242H66.4353V60.1215H66.9326ZM71.0246 60.1215H71.522V59.6242H71.0246V60.1215ZM71.0246 61.5515V62.0488H71.522V61.5515H71.0246ZM65.8711 65H66.3685V56.86H65.8711H65.3738V65H65.8711ZM65.8711 56.86V57.3573H71.5856V56.86V56.3627H65.8711V56.86ZM71.5856 56.86H71.0883V58.29H71.5856H72.083V56.86H71.5856ZM71.5856 58.29V57.7927H67.6366V58.29V58.7873H71.5856V58.29ZM67.6366 58.29H67.1393V63.57H67.6366H68.134V58.29H67.6366ZM67.6366 63.57V64.0673H71.6406V63.57V63.0727H67.6366V63.57ZM71.6406 63.57H71.1433V65H71.6406H72.138V63.57H71.6406ZM71.6406 65V64.5027H65.8711V65V65.4973H71.6406V65ZM66.9326 61.5515H67.43V60.1215H66.9326H66.4353V61.5515H66.9326ZM66.9326 60.1215V60.6188H71.0246V60.1215V59.6242H66.9326V60.1215ZM71.0246 60.1215H70.5273V61.5515H71.0246H71.522V60.1215H71.0246ZM71.0246 61.5515V61.0542H66.9326V61.5515V62.0488H71.0246V61.5515Z" fill="#4C4DDC" mask="url(#path-3-outside-1_337_1922)"/>
</svg>
