<svg width="210" height="18" viewBox="0 0 210 18" fill="none" xmlns="http://www.w3.org/2000/svg">
<path d="M9.15333 2.34001L10.3267 4.68668C10.4867 5.01334 10.9133 5.32668 11.2733 5.38668L13.4 5.74001C14.76 5.96668 15.08 6.95334 14.1 7.92668L12.4467 9.58001C12.1667 9.86001 12.0133 10.4 12.1 10.7867L12.5733 12.8333C12.9467 14.4533 12.0867 15.08 10.6533 14.2333L8.66 13.0533C8.3 12.84 7.70667 12.84 7.34 13.0533L5.34667 14.2333C3.92 15.08 3.05333 14.4467 3.42667 12.8333L3.9 10.7867C3.98667 10.4 3.83333 9.86001 3.55333 9.58001L1.9 7.92668C0.926667 6.95334 1.24 5.96668 2.6 5.74001L4.72667 5.38668C5.08 5.32668 5.50667 5.01334 5.66667 4.68668L6.84 2.34001C7.48 1.06668 8.52 1.06668 9.15333 2.34001Z" fill="#FFD33C"/>
<path d="M29.1533 2.34001L30.3267 4.68668C30.4867 5.01334 30.9133 5.32668 31.2733 5.38668L33.4 5.74001C34.76 5.96668 35.08 6.95334 34.1 7.92668L32.4467 9.58001C32.1667 9.86001 32.0133 10.4 32.1 10.7867L32.5733 12.8333C32.9467 14.4533 32.0867 15.08 30.6533 14.2333L28.66 13.0533C28.3 12.84 27.7067 12.84 27.34 13.0533L25.3467 14.2333C23.92 15.08 23.0533 14.4467 23.4267 12.8333L23.9 10.7867C23.9867 10.4 23.8333 9.86001 23.5533 9.58001L21.9 7.92668C20.9267 6.95334 21.24 5.96668 22.6 5.74001L24.7267 5.38668C25.08 5.32668 25.5067 5.01334 25.6667 4.68668L26.84 2.34001C27.48 1.06668 28.52 1.06668 29.1533 2.34001Z" fill="#FFD33C"/>
<path d="M49.1533 2.34001L50.3267 4.68668C50.4867 5.01334 50.9133 5.32668 51.2733 5.38668L53.4 5.74001C54.76 5.96668 55.08 6.95334 54.1 7.92668L52.4467 9.58001C52.1667 9.86001 52.0133 10.4 52.1 10.7867L52.5733 12.8333C52.9467 14.4533 52.0867 15.08 50.6533 14.2333L48.66 13.0533C48.3 12.84 47.7067 12.84 47.34 13.0533L45.3467 14.2333C43.92 15.08 43.0533 14.4467 43.4267 12.8333L43.9 10.7867C43.9867 10.4 43.8333 9.86001 43.5533 9.58001L41.9 7.92668C40.9267 6.95334 41.24 5.96668 42.6 5.74001L44.7267 5.38668C45.08 5.32668 45.5067 5.01334 45.6667 4.68668L46.84 2.34001C47.48 1.06668 48.52 1.06668 49.1533 2.34001Z" fill="#FFD33C"/>
<path d="M69.1533 2.34001L70.3267 4.68668C70.4867 5.01334 70.9133 5.32668 71.2733 5.38668L73.4 5.74001C74.76 5.96668 75.08 6.95334 74.1 7.92668L72.4467 9.58001C72.1667 9.86001 72.0133 10.4 72.1 10.7867L72.5733 12.8333C72.9467 14.4533 72.0867 15.08 70.6533 14.2333L68.66 13.0533C68.3 12.84 67.7067 12.84 67.34 13.0533L65.3467 14.2333C63.92 15.08 63.0533 14.4467 63.4267 12.8333L63.9 10.7867C63.9867 10.4 63.8333 9.86001 63.5533 9.58001L61.9 7.92668C60.9267 6.95334 61.24 5.96668 62.6 5.74001L64.7267 5.38668C65.08 5.32668 65.5067 5.01334 65.6667 4.68668L66.84 2.34001C67.48 1.06668 68.52 1.06668 69.1533 2.34001Z" fill="#FFD33C"/>
<path d="M89.1533 2.34001L90.3266 4.68668C90.4866 5.01334 90.9133 5.32668 91.2733 5.38668L93.3999 5.74001C94.7599 5.96668 95.0799 6.95334 94.0999 7.92668L92.4466 9.58001C92.1666 9.86001 92.0133 10.4 92.0999 10.7867L92.5733 12.8333C92.9466 14.4533 92.0866 15.08 90.6533 14.2333L88.6599 13.0533C88.2999 12.84 87.7066 12.84 87.3399 13.0533L85.3466 14.2333C83.9199 15.08 83.0533 14.4467 83.4266 12.8333L83.8999 10.7867C83.9866 10.4 83.8333 9.86001 83.5533 9.58001L81.8999 7.92668C80.9266 6.95334 81.2399 5.96668 82.5999 5.74001L84.7266 5.38668C85.0799 5.32668 85.5066 5.01334 85.6666 4.68668L86.8399 2.34001C87.4799 1.06668 88.5199 1.06668 89.1533 2.34001Z" fill="#FFD33C"/>
<path d="M106.616 14.114C106.24 14.114 105.868 14.082 105.5 14.018C105.132 13.958 104.788 13.874 104.468 13.766V12.974C104.804 13.082 105.156 13.168 105.524 13.232C105.892 13.292 106.25 13.322 106.598 13.322C107.358 13.322 107.924 13.17 108.296 12.866C108.672 12.562 108.86 12.11 108.86 11.51C108.86 11.122 108.766 10.8 108.578 10.544C108.394 10.284 108.088 10.082 107.66 9.938C107.232 9.794 106.65 9.702 105.914 9.662L104.798 9.596L105.098 5.12H109.43V5.912H105.56L105.998 5.516L105.746 9.242L105.128 8.822L106.244 8.882C107.08 8.934 107.76 9.062 108.284 9.266C108.808 9.47 109.19 9.756 109.43 10.124C109.674 10.492 109.796 10.948 109.796 11.492C109.796 12.344 109.526 12.994 108.986 13.442C108.45 13.89 107.66 14.114 106.616 14.114ZM111.456 14.078C111.248 14.078 111.08 14.018 110.952 13.898C110.828 13.778 110.766 13.616 110.766 13.412C110.766 13.208 110.828 13.046 110.952 12.926C111.076 12.806 111.244 12.746 111.456 12.746C111.664 12.746 111.83 12.808 111.954 12.932C112.082 13.052 112.146 13.212 112.146 13.412C112.146 13.612 112.082 13.774 111.954 13.898C111.826 14.018 111.66 14.078 111.456 14.078ZM116.158 14.114C115.538 14.114 114.998 13.964 114.538 13.664C114.082 13.364 113.728 12.88 113.476 12.212C113.228 11.544 113.104 10.66 113.104 9.56C113.104 8.46 113.228 7.576 113.476 6.908C113.724 6.24 114.076 5.756 114.532 5.456C114.988 5.156 115.53 5.006 116.158 5.006C116.79 5.006 117.334 5.156 117.79 5.456C118.246 5.756 118.598 6.24 118.846 6.908C119.094 7.576 119.218 8.46 119.218 9.56C119.218 10.66 119.092 11.544 118.84 12.212C118.592 12.88 118.238 13.364 117.778 13.664C117.322 13.964 116.782 14.114 116.158 14.114ZM116.164 13.274C116.584 13.274 116.95 13.164 117.262 12.944C117.574 12.724 117.814 12.346 117.982 11.81C118.154 11.27 118.24 10.526 118.24 9.578C118.24 8.618 118.154 7.868 117.982 7.328C117.814 6.784 117.574 6.402 117.262 6.182C116.95 5.958 116.584 5.846 116.164 5.846C115.74 5.846 115.372 5.956 115.06 6.176C114.748 6.396 114.506 6.776 114.334 7.316C114.166 7.852 114.082 8.594 114.082 9.542C114.082 10.502 114.166 11.254 114.334 11.798C114.506 12.338 114.748 12.72 115.06 12.944C115.372 13.164 115.74 13.274 116.164 13.274ZM125.634 16.64C124.918 15.76 124.396 14.8 124.068 13.76C123.744 12.72 123.582 11.624 123.582 10.472C123.582 9.32 123.744 8.224 124.068 7.184C124.396 6.14 124.918 5.18 125.634 4.304H126.666C126.174 4.924 125.774 5.564 125.466 6.224C125.158 6.884 124.932 7.568 124.788 8.276C124.648 8.984 124.578 9.716 124.578 10.472C124.578 11.228 124.648 11.96 124.788 12.668C124.932 13.376 125.158 14.06 125.466 14.72C125.774 15.38 126.174 16.02 126.666 16.64H125.634ZM127.989 14L131.307 5.648L131.589 5.954H127.041V5.12H132.255V5.654L129.003 14H127.989ZM133.417 14.078C133.209 14.078 133.041 14.018 132.913 13.898C132.789 13.778 132.727 13.616 132.727 13.412C132.727 13.208 132.789 13.046 132.913 12.926C133.037 12.806 133.205 12.746 133.417 12.746C133.625 12.746 133.791 12.808 133.915 12.932C134.043 13.052 134.107 13.212 134.107 13.412C134.107 13.612 134.043 13.774 133.915 13.898C133.787 14.018 133.621 14.078 133.417 14.078ZM137.962 5.006C138.422 5.006 138.84 5.084 139.216 5.24C139.596 5.392 139.922 5.636 140.194 5.972C140.47 6.308 140.682 6.748 140.83 7.292C140.978 7.836 141.052 8.496 141.052 9.272C141.052 10.388 140.906 11.304 140.614 12.02C140.326 12.732 139.902 13.26 139.342 13.604C138.782 13.944 138.1 14.114 137.296 14.114C137.008 14.114 136.724 14.094 136.444 14.054C136.168 14.014 135.912 13.946 135.676 13.85V13.046C135.916 13.138 136.174 13.206 136.45 13.25C136.726 13.294 136.996 13.316 137.26 13.316C137.884 13.316 138.406 13.186 138.826 12.926C139.246 12.662 139.562 12.25 139.774 11.69C139.986 11.13 140.092 10.402 140.092 9.506V9.164C140.092 8.516 140.042 7.974 139.942 7.538C139.842 7.102 139.698 6.756 139.51 6.5C139.322 6.24 139.096 6.054 138.832 5.942C138.568 5.83 138.276 5.774 137.956 5.774C137.616 5.774 137.312 5.838 137.044 5.966C136.776 6.094 136.564 6.294 136.408 6.566C136.256 6.834 136.18 7.18 136.18 7.604C136.18 8.036 136.26 8.39 136.42 8.666C136.584 8.938 136.814 9.138 137.11 9.266C137.41 9.394 137.76 9.458 138.16 9.458C138.404 9.458 138.656 9.428 138.916 9.368C139.18 9.308 139.432 9.214 139.672 9.086C139.912 8.954 140.118 8.782 140.29 8.57V9.386C140.038 9.65 139.704 9.856 139.288 10.004C138.876 10.152 138.448 10.226 138.004 10.226C137.468 10.226 136.994 10.132 136.582 9.944C136.17 9.756 135.846 9.472 135.61 9.092C135.378 8.708 135.262 8.222 135.262 7.634C135.262 7.062 135.376 6.58 135.604 6.188C135.836 5.796 136.154 5.502 136.558 5.306C136.966 5.106 137.434 5.006 137.962 5.006ZM144.118 14.114C143.746 14.114 143.378 14.084 143.014 14.024C142.65 13.968 142.304 13.884 141.976 13.772V12.98C142.32 13.092 142.674 13.178 143.038 13.238C143.406 13.298 143.758 13.328 144.094 13.328C144.854 13.328 145.422 13.178 145.798 12.878C146.178 12.574 146.368 12.134 146.368 11.558C146.368 11.018 146.19 10.598 145.834 10.298C145.482 9.994 144.92 9.842 144.148 9.842H143.086V9.05H143.668C144.464 9.05 145.062 8.9 145.462 8.6C145.866 8.3 146.068 7.874 146.068 7.322C146.068 6.826 145.904 6.448 145.576 6.188C145.252 5.924 144.77 5.792 144.13 5.792C143.802 5.792 143.474 5.82 143.146 5.876C142.818 5.928 142.498 6.012 142.186 6.128V5.336C142.37 5.268 142.574 5.21 142.798 5.162C143.022 5.11 143.254 5.072 143.494 5.048C143.734 5.02 143.972 5.006 144.208 5.006C145.124 5.006 145.82 5.204 146.296 5.6C146.776 5.992 147.016 6.546 147.016 7.262C147.016 7.834 146.842 8.314 146.494 8.702C146.15 9.086 145.674 9.34 145.066 9.464L145.072 9.332C145.796 9.424 146.35 9.666 146.734 10.058C147.118 10.446 147.31 10.96 147.31 11.6C147.31 12.128 147.19 12.58 146.95 12.956C146.71 13.328 146.354 13.614 145.882 13.814C145.41 14.014 144.822 14.114 144.118 14.114ZM147.954 14V13.466L150.498 10.082C150.786 9.698 151.016 9.356 151.188 9.056C151.364 8.752 151.49 8.472 151.566 8.216C151.642 7.96 151.68 7.706 151.68 7.454C151.68 6.878 151.522 6.464 151.206 6.212C150.89 5.96 150.414 5.834 149.778 5.834C149.43 5.834 149.094 5.864 148.77 5.924C148.45 5.984 148.144 6.072 147.852 6.188V5.348C148.024 5.28 148.218 5.22 148.434 5.168C148.654 5.116 148.886 5.076 149.13 5.048C149.374 5.02 149.616 5.006 149.856 5.006C150.752 5.006 151.442 5.196 151.926 5.576C152.41 5.952 152.652 6.552 152.652 7.376C152.652 7.692 152.608 8.004 152.52 8.312C152.436 8.616 152.296 8.942 152.1 9.29C151.904 9.634 151.638 10.024 151.302 10.46L149.046 13.436L148.968 13.166H153.132V14H147.954ZM157.347 14V7.49H158.151L158.229 8.36H158.289C158.513 8.052 158.793 7.82 159.129 7.664C159.469 7.504 159.823 7.424 160.191 7.424C160.291 7.424 160.381 7.428 160.461 7.436C160.545 7.444 160.627 7.456 160.707 7.472V8.36C160.615 8.344 160.523 8.334 160.431 8.33C160.343 8.326 160.247 8.324 160.143 8.324C159.931 8.324 159.709 8.358 159.477 8.426C159.249 8.49 159.033 8.592 158.829 8.732C158.625 8.868 158.451 9.04 158.307 9.248V14H157.347ZM164.261 14.114C163.585 14.114 163.017 14 162.557 13.772C162.101 13.54 161.757 13.178 161.525 12.686C161.293 12.19 161.177 11.542 161.177 10.742C161.177 9.978 161.283 9.348 161.495 8.852C161.711 8.356 162.015 7.988 162.407 7.748C162.803 7.508 163.271 7.388 163.811 7.388C164.343 7.388 164.795 7.51 165.167 7.754C165.543 7.994 165.829 8.364 166.025 8.864C166.221 9.36 166.319 9.994 166.319 10.766V11.06H161.699V10.406H165.611L165.401 10.55C165.401 9.942 165.337 9.458 165.209 9.098C165.085 8.738 164.903 8.48 164.663 8.324C164.427 8.164 164.139 8.084 163.799 8.084C163.463 8.084 163.171 8.162 162.923 8.318C162.675 8.474 162.483 8.732 162.347 9.092C162.215 9.452 162.149 9.938 162.149 10.55V10.886C162.149 11.486 162.229 11.966 162.389 12.326C162.553 12.682 162.799 12.94 163.127 13.1C163.455 13.256 163.871 13.334 164.375 13.334C164.623 13.334 164.879 13.312 165.143 13.268C165.411 13.22 165.695 13.154 165.995 13.07V13.856C165.683 13.944 165.385 14.008 165.101 14.048C164.821 14.092 164.541 14.114 164.261 14.114ZM169.31 14L166.844 7.49H167.87L170.012 13.31H169.892L172.04 7.49H173.006L170.54 14H169.31ZM174.011 14V7.49H174.971V14H174.011ZM174.491 6.074C174.275 6.074 174.109 6.022 173.993 5.918C173.881 5.81 173.825 5.662 173.825 5.474C173.825 5.282 173.881 5.132 173.993 5.024C174.109 4.916 174.275 4.862 174.491 4.862C174.707 4.862 174.871 4.916 174.983 5.024C175.099 5.132 175.157 5.282 175.157 5.474C175.157 5.662 175.099 5.81 174.983 5.918C174.871 6.022 174.707 6.074 174.491 6.074ZM179.531 14.114C178.855 14.114 178.287 14 177.827 13.772C177.371 13.54 177.027 13.178 176.795 12.686C176.563 12.19 176.447 11.542 176.447 10.742C176.447 9.978 176.553 9.348 176.765 8.852C176.981 8.356 177.285 7.988 177.677 7.748C178.073 7.508 178.541 7.388 179.081 7.388C179.613 7.388 180.065 7.51 180.437 7.754C180.813 7.994 181.099 8.364 181.295 8.864C181.491 9.36 181.589 9.994 181.589 10.766V11.06H176.969V10.406H180.881L180.671 10.55C180.671 9.942 180.607 9.458 180.479 9.098C180.355 8.738 180.173 8.48 179.933 8.324C179.697 8.164 179.409 8.084 179.069 8.084C178.733 8.084 178.441 8.162 178.193 8.318C177.945 8.474 177.753 8.732 177.617 9.092C177.485 9.452 177.419 9.938 177.419 10.55V10.886C177.419 11.486 177.499 11.966 177.659 12.326C177.823 12.682 178.069 12.94 178.397 13.1C178.725 13.256 179.141 13.334 179.645 13.334C179.893 13.334 180.149 13.312 180.413 13.268C180.681 13.22 180.965 13.154 181.265 13.07V13.856C180.953 13.944 180.655 14.008 180.371 14.048C180.091 14.092 179.811 14.114 179.531 14.114ZM184.291 14L182.383 7.49H183.325L184.951 13.166H184.855L186.553 7.49H187.687L189.385 13.166H189.277L190.909 7.49H191.815L189.919 14H188.785L187.057 8.258H187.165L185.425 14H184.291ZM194.55 14.114C194.222 14.114 193.908 14.092 193.608 14.048C193.312 14.004 193.024 13.938 192.744 13.85V13.082C193.064 13.178 193.37 13.248 193.662 13.292C193.954 13.332 194.25 13.352 194.55 13.352C195.114 13.352 195.522 13.256 195.774 13.064C196.03 12.872 196.158 12.602 196.158 12.254C196.158 11.958 196.082 11.732 195.93 11.576C195.778 11.416 195.52 11.298 195.156 11.222L194.274 11.042C193.682 10.914 193.258 10.704 193.002 10.412C192.75 10.116 192.624 9.736 192.624 9.272C192.624 8.724 192.834 8.274 193.254 7.922C193.678 7.566 194.328 7.388 195.204 7.388C195.484 7.388 195.75 7.404 196.002 7.436C196.258 7.468 196.504 7.516 196.74 7.58V8.354C196.476 8.282 196.222 8.23 195.978 8.198C195.738 8.166 195.486 8.15 195.222 8.15C194.81 8.15 194.48 8.2 194.232 8.3C193.988 8.396 193.812 8.528 193.704 8.696C193.596 8.86 193.542 9.044 193.542 9.248C193.542 9.504 193.614 9.716 193.758 9.884C193.902 10.052 194.154 10.176 194.514 10.256L195.396 10.436C195.996 10.56 196.426 10.764 196.686 11.048C196.95 11.332 197.082 11.718 197.082 12.206C197.082 12.794 196.866 13.26 196.434 13.604C196.006 13.944 195.378 14.114 194.55 14.114ZM197.612 16.64C198.104 16.02 198.504 15.38 198.812 14.72C199.12 14.06 199.344 13.376 199.484 12.668C199.628 11.96 199.7 11.228 199.7 10.472C199.7 9.716 199.628 8.984 199.484 8.276C199.344 7.568 199.12 6.884 198.812 6.224C198.504 5.564 198.104 4.924 197.612 4.304H198.644C199.364 5.18 199.886 6.14 200.21 7.184C200.534 8.224 200.696 9.32 200.696 10.472C200.696 11.624 200.534 12.72 200.21 13.76C199.886 14.8 199.364 15.76 198.644 16.64H197.612Z" fill="#939393"/>
</svg>
