<svg width="85" height="85" viewBox="0 0 85 85" fill="none" xmlns="http://www.w3.org/2000/svg">
<path d="M35.2611 5.38646C38.1431 -0.739305 46.8569 -0.739305 49.7389 5.38646L50.0963 6.14625C51.9682 10.1249 56.7001 11.8472 60.6914 10.0025L61.4536 9.65027C67.5989 6.81017 74.274 12.4113 72.5442 18.9564L72.3297 19.7682C71.2062 24.0192 73.7239 28.3801 77.9672 29.5327L78.7775 29.7528C85.3106 31.5272 86.8238 40.1086 81.2915 44.0106L80.6053 44.4945C77.0122 47.0288 76.1378 51.9879 78.6475 55.5982L79.1267 56.2877C82.9908 61.8465 78.6339 69.3928 71.8879 68.8258L71.0511 68.7555C66.6696 68.3872 62.8121 71.624 62.414 76.0029L62.3379 76.8392C61.7249 83.5812 53.5366 86.5615 48.7333 81.7909L48.1375 81.1991C45.0178 78.1007 39.9822 78.1007 36.8625 81.1991L36.2667 81.7909C31.4634 86.5615 23.2751 83.5812 22.6621 76.8392L22.586 76.0029C22.1879 71.624 18.3304 68.3872 13.9489 68.7555L13.1121 68.8258C6.36608 69.3928 2.00919 61.8465 5.87326 56.2877L6.35254 55.5982C8.86222 51.9879 7.9878 47.0288 4.39465 44.4945L3.70847 44.0106C-1.82378 40.1086 -0.310646 31.5272 6.2225 29.7528L7.03283 29.5327C11.2761 28.3801 13.7938 24.0192 12.6703 19.7682L12.4558 18.9564C10.726 12.4113 17.4011 6.81017 23.5464 9.65027L24.3086 10.0025C28.2999 11.8472 33.0318 10.1249 34.9037 6.14625L35.2611 5.38646Z" fill="white"/>
</svg>
